<svg width="1296" height="943" viewBox="0 0 1296 943" fill="none" xmlns="http://www.w3.org/2000/svg">
<g filter="url(#filter0_d)">
<rect x="40" y="53" width="1136" height="770" fill="#35657E"/>
</g>
<path fill-rule="evenodd" clip-rule="evenodd" d="M61 72L116 122V753L62 802L61 72Z" fill="url(#paint0_linear)"/>
<path fill-rule="evenodd" clip-rule="evenodd" d="M1152.5 73L1098 122.5L116.5 122.5L62 73L1152.5 73Z" fill="url(#paint1_linear)"/>
<path fill-rule="evenodd" clip-rule="evenodd" d="M1153 72L1098 122V752L1153 802V72Z" fill="url(#paint2_linear)"/>
<rect x="116" y="122" width="982" height="632" fill="#003B9D"/>
<path fill-rule="evenodd" clip-rule="evenodd" d="M1153.5 801.502L1098 752.002L116.5 752.002L62 801.502H1153.5Z" fill="url(#paint3_linear)"/>
<g clip-path="url(#clip0)">
<rect x="28.5951" y="17.1727" width="139.3" height="51.1" transform="rotate(-6 28.5951 17.1727)" fill="#003B9D" stroke="white" stroke-width="4.2"/>
<path d="M67.9796 29.7828L61.6738 51.9053L52.5938 52.8597L41.8263 32.5316L50.8286 31.5854L56.2919 42.5061L59.6757 30.6555L67.9796 29.7828ZM69.0083 29.6747L77.7778 28.7529L80.0086 49.9783L71.2391 50.9L69.0083 29.6747ZM73.2136 27.5065C71.6356 27.6723 70.3116 27.393 69.2416 26.6685C68.1947 25.9155 67.6033 24.8922 67.4673 23.5988C67.3314 22.3053 67.6985 21.1944 68.5686 20.266C69.4619 19.309 70.6976 18.7476 72.2755 18.5817C73.8794 18.4132 75.2021 18.6796 76.2435 19.3809C77.2849 20.0822 77.8722 21.0667 78.0055 22.3342C78.1469 23.6794 77.7852 24.8421 76.9205 25.8222C76.0531 26.7765 74.8174 27.3379 73.2136 27.5065ZM104.033 18.3432L107.059 47.1351L98.7167 48.012L98.5332 46.2658C97.4151 47.8218 95.5497 48.7371 92.937 49.0117C91.0744 49.2075 89.308 48.9485 87.6375 48.2349C85.9902 47.4926 84.6126 46.3297 83.5046 44.7461C82.4224 43.1598 81.7658 41.2672 81.5347 39.0684C81.3036 36.8695 81.5538 34.8947 82.2851 33.1439C83.0397 31.3646 84.1468 29.9536 85.6065 28.9109C87.0893 27.8396 88.762 27.2061 90.6246 27.0104C92.9786 26.763 94.8404 27.1819 96.2099 28.2672L95.2637 19.2649L104.033 18.3432ZM94.3146 41.9622C95.3235 41.8561 96.1132 41.407 96.6838 40.6147C97.2517 39.7965 97.4663 38.7278 97.3276 37.4085C97.1889 36.0891 96.7582 35.1013 96.0353 34.445C95.3125 33.7886 94.4466 33.5135 93.4377 33.6195C92.4288 33.7255 91.6391 34.1747 91.0685 34.967C90.4979 35.7593 90.282 36.8151 90.4206 38.1344C90.5593 39.4537 90.9914 40.4545 91.717 41.1367C92.4398 41.793 93.3057 42.0682 94.3146 41.9622ZM132.096 33.7541C132.11 33.8834 132.143 34.573 132.196 35.8229L117.451 37.3727C117.846 38.142 118.428 38.7085 119.199 39.0721C119.967 39.4099 120.894 39.5217 121.98 39.4075C122.912 39.3096 123.676 39.1116 124.272 38.8135C124.894 38.5127 125.55 38.0384 126.241 37.3904L131.305 41.5267C129.475 44.0207 126.503 45.4838 122.39 45.9161C119.829 46.1853 117.529 45.9562 115.491 45.2289C113.451 44.4756 111.811 43.314 110.574 41.744C109.337 40.174 108.608 38.3413 108.388 36.246C108.165 34.1247 108.484 32.1819 109.344 30.4176C110.228 28.6246 111.527 27.1674 113.24 26.0458C114.978 24.9215 116.986 24.2397 119.263 24.0004C121.41 23.7747 123.408 23.9963 125.256 24.6651C127.131 25.3311 128.673 26.4376 129.882 27.9844C131.116 29.5286 131.855 31.4518 132.096 33.7541ZM119.968 29.9679C119.063 30.0631 118.338 30.3877 117.795 30.9417C117.252 31.4958 116.937 32.235 116.851 33.1595L123.681 32.4417C123.407 31.5812 122.947 30.9364 122.3 30.5074C121.651 30.0526 120.874 29.8728 119.968 29.9679ZM146.924 43.3375C144.57 43.5849 142.4 43.3422 140.414 42.6094C138.45 41.848 136.852 40.6953 135.617 39.1512C134.38 37.5812 133.649 35.7355 133.426 33.6143C133.204 31.4931 133.535 29.5489 134.422 27.7818C135.306 25.9889 136.63 24.5289 138.395 23.4019C140.185 22.2721 142.258 21.5835 144.612 21.3361C146.992 21.086 149.162 21.3286 151.122 22.0642C153.109 22.797 154.707 23.9497 155.919 25.5224C157.154 27.0665 157.882 28.8992 158.105 31.0205C158.328 33.1417 157.998 35.0988 157.114 36.8917C156.253 38.6561 154.929 40.1161 153.141 41.2717C151.376 42.3987 149.304 43.0873 146.924 43.3375ZM146.206 36.5081C147.215 36.4021 148.005 35.9529 148.576 35.1606C149.143 34.3425 149.358 33.2737 149.219 31.9544C149.081 30.6351 148.65 29.6473 147.927 28.9909C147.204 28.3346 146.338 28.0594 145.33 28.1654C144.321 28.2715 143.531 28.7207 142.96 29.513C142.39 30.3052 142.174 31.3611 142.312 32.6804C142.451 33.9997 142.883 35.0004 143.609 35.6826C144.332 36.339 145.197 36.6142 146.206 36.5081Z" fill="white"/>
</g>
<g clip-path="url(#clip1)">
<rect x="89.4955" y="54.9727" width="167.3" height="51.1" transform="rotate(-6 89.4955 54.9727)" fill="#B24203" stroke="#FFC107" stroke-width="4.2"/>
<path d="M117.382 67.6233C119.245 67.4275 121 67.7008 122.647 68.4431C124.317 69.1567 125.694 70.3067 126.776 71.893C127.884 73.4766 128.553 75.3678 128.785 77.5667C129.016 79.7655 128.754 81.7546 127.999 83.534C127.268 85.2847 126.161 86.6958 124.678 87.767C123.218 88.8097 121.557 89.4289 119.695 89.6247C117.341 89.8721 115.479 89.4531 114.109 88.3678L115.052 97.3313L106.282 98.253L103.26 69.4999L111.603 68.6231L111.786 70.3692C112.904 68.8132 114.77 67.8979 117.382 67.6233ZM116.882 83.0155C117.89 82.9095 118.68 82.4603 119.251 81.668C119.821 80.8757 120.037 79.8199 119.899 78.5006C119.76 77.1813 119.329 76.1935 118.606 75.5371C117.881 74.8549 117.014 74.5668 116.005 74.6729C114.996 74.7789 114.207 75.241 113.64 76.0592C113.069 76.8515 112.853 77.9073 112.992 79.2266C113.13 80.5459 113.561 81.5337 114.284 82.1901C115.007 82.8464 115.873 83.1216 116.882 83.0155ZM143.603 87.1118C141.249 87.3592 139.079 87.1165 137.093 86.3837C135.13 85.6223 133.531 84.4696 132.296 82.9255C131.059 81.3555 130.329 79.5098 130.106 77.3886C129.883 75.2674 130.215 73.3232 131.101 71.5561C131.985 69.7632 133.309 68.3032 135.074 67.1762C136.865 66.0464 138.937 65.3578 141.291 65.1104C143.671 64.8603 145.841 65.1029 147.801 65.8385C149.788 66.5713 151.387 67.724 152.598 69.2967C153.833 70.8408 154.561 72.6735 154.784 74.7948C155.007 76.916 154.677 78.8731 153.793 80.666C152.932 82.4304 151.608 83.8904 149.82 85.046C148.056 86.173 145.983 86.8616 143.603 87.1118ZM142.885 80.2824C143.894 80.1764 144.684 79.7272 145.255 78.9349C145.823 78.1168 146.037 77.048 145.899 75.7287C145.76 74.4094 145.329 73.4216 144.606 72.7652C143.883 72.1089 143.018 71.8337 142.009 71.9397C141 72.0458 140.21 72.495 139.639 73.2873C139.069 74.0796 138.853 75.1354 138.992 76.4547C139.13 77.774 139.562 78.7747 140.288 79.4569C141.011 80.1133 141.877 80.3885 142.885 80.2824ZM167.816 77.5837L166.578 79.2438L167.104 84.2494L158.334 85.1711L155.308 56.3792L164.078 55.4575L165.522 69.1938L170.965 62.3838L181.326 61.2949L173.523 71.4129L184.255 82.4468L173.662 83.5602L167.816 77.5837ZM206.165 69.3944C206.179 69.5237 206.212 70.2133 206.265 71.4632L191.52 73.013C191.915 73.7823 192.497 74.3488 193.268 74.7124C194.036 75.0502 194.963 75.162 196.049 75.0478C196.981 74.9499 197.744 74.7519 198.341 74.4538C198.963 74.153 199.619 73.6787 200.31 73.0307L205.374 77.167C203.544 79.661 200.572 81.1241 196.459 81.5564C193.898 81.8256 191.598 81.5965 189.56 80.8692C187.519 80.1159 185.88 78.9543 184.643 77.3843C183.406 75.8143 182.677 73.9817 182.457 71.8863C182.234 69.7651 182.553 67.8223 183.413 66.0579C184.297 64.265 185.596 62.8077 187.309 61.6861C189.047 60.5618 191.055 59.88 193.331 59.6407C195.479 59.415 197.477 59.6366 199.325 60.3054C201.2 60.9714 202.742 62.0779 203.95 63.6247C205.185 65.1689 205.923 67.0921 206.165 69.3944ZM194.037 65.6082C193.132 65.7034 192.407 66.028 191.864 66.582C191.321 67.1361 191.006 67.8753 190.92 68.7998L197.75 68.082C197.476 67.2215 197.016 66.5767 196.369 66.1478C195.72 65.6929 194.943 65.5131 194.037 65.6082ZM216.091 59.9556C217.455 58.0075 219.651 56.8744 222.677 56.5563L223.493 64.317C222.784 64.2869 222.132 64.3031 221.537 64.3657C218.536 64.6811 217.196 66.365 217.517 69.4175L218.508 78.8467L209.738 79.7684L207.507 58.5431L215.85 57.6662L216.091 59.9556ZM235.467 77.4565C233.656 77.6468 231.851 77.6404 230.051 77.4373C228.251 77.2341 226.775 76.8792 225.624 76.3726L227.422 70.338C228.467 70.8297 229.68 71.173 231.061 71.3679C232.441 71.5628 233.765 71.5937 235.033 71.4604C236.042 71.3544 236.732 71.2034 237.104 71.0074C237.499 70.7828 237.678 70.5024 237.643 70.1661C237.608 69.8298 237.325 69.6241 236.794 69.5492C236.289 69.4715 235.46 69.4278 234.308 69.4181C232.553 69.3933 231.052 69.2896 229.803 69.107C228.552 68.8985 227.412 68.3775 226.383 67.5441C225.379 66.708 224.787 65.4233 224.604 63.6901C224.46 62.3191 224.745 61.0468 225.459 59.8733C226.172 58.6998 227.31 57.7041 228.872 56.8861C230.459 56.0653 232.404 55.534 234.707 55.292C236.311 55.1234 237.892 55.1141 239.451 55.2642C241.033 55.3856 242.397 55.6737 243.543 56.1287L241.745 62.1632C239.774 61.3242 237.676 61.0216 235.451 61.2554C233.537 61.4566 232.615 61.8935 232.686 62.5661C232.721 62.9024 233.006 63.121 233.539 63.2218C234.07 63.2968 234.899 63.3405 236.025 63.3529C237.78 63.3777 239.27 63.4957 240.495 63.7069C241.746 63.9154 242.874 64.4377 243.877 65.2738C244.906 66.1072 245.512 67.3905 245.694 69.1237C245.832 70.4431 245.545 71.6895 244.831 72.8629C244.118 74.0364 242.967 75.0335 241.38 75.8543C239.792 76.675 237.821 77.2091 235.467 77.4565Z" fill="white"/>
</g>
<defs>
<filter id="filter0_d" x="0" y="13" width="1296" height="930" filterUnits="userSpaceOnUse" color-interpolation-filters="sRGB">
<feFlood flood-opacity="0" result="BackgroundImageFix"/>
<feColorMatrix in="SourceAlpha" type="matrix" values="0 0 0 0 0 0 0 0 0 0 0 0 0 0 0 0 0 0 127 0"/>
<feOffset dx="40" dy="40"/>
<feGaussianBlur stdDeviation="40"/>
<feColorMatrix type="matrix" values="0 0 0 0 0 0 0 0 0 0.0379363 0 0 0 0 0.0848053 0 0 0 0.5 0"/>
<feBlend mode="normal" in2="BackgroundImageFix" result="effect1_dropShadow"/>
<feBlend mode="normal" in="SourceGraphic" in2="effect1_dropShadow" result="shape"/>
</filter>
<linearGradient id="paint0_linear" x1="93.9724" y1="-60.6197" x2="93.9724" y2="524.112" gradientUnits="userSpaceOnUse">
<stop stop-color="#07364E"/>
<stop offset="1" stop-color="#012234"/>
</linearGradient>
<linearGradient id="paint1_linear" x1="1877.37" y1="103.601" x2="1864.5" y2="-33.4036" gradientUnits="userSpaceOnUse">
<stop stop-color="#01243C"/>
<stop offset="1" stop-color="#00263A"/>
</linearGradient>
<linearGradient id="paint2_linear" x1="1120.03" y1="-60.6197" x2="1120.03" y2="524.112" gradientUnits="userSpaceOnUse">
<stop stop-color="#07364E"/>
<stop offset="1" stop-color="#012234"/>
</linearGradient>
<linearGradient id="paint3_linear" x1="1879.04" y1="770.901" x2="1866.18" y2="907.908" gradientUnits="userSpaceOnUse">
<stop stop-color="#01243C"/>
<stop offset="1" stop-color="#04324A"/>
</linearGradient>
<clipPath id="clip0">
<rect width="144" height="56" fill="white" transform="translate(26.2871 15.3037) rotate(-6)"/>
</clipPath>
<clipPath id="clip1">
<rect width="173" height="56" fill="white" transform="translate(86.6338 53.0901) rotate(-6)"/>
</clipPath>
</defs>
</svg>
