<svg width="240" height="109" viewBox="0 0 240 109" fill="none" xmlns="http://www.w3.org/2000/svg">
<g clip-path="url(#clip0)">
<rect x="2.59512" y="17.1727" width="139.3" height="51.1" transform="rotate(-6 2.59512 17.1727)" fill="#003B9D" stroke="white" stroke-width="4.2"/>
<path d="M41.9796 29.7828L35.6738 51.9053L26.5938 52.8597L15.8263 32.5316L24.8286 31.5854L30.2919 42.5061L33.6757 30.6555L41.9796 29.7828ZM43.0083 29.6747L51.7778 28.7529L54.0086 49.9783L45.2391 50.9L43.0083 29.6747ZM47.2136 27.5065C45.6356 27.6723 44.3116 27.393 43.2416 26.6685C42.1947 25.9155 41.6033 24.8922 41.4673 23.5988C41.3314 22.3053 41.6985 21.1944 42.5686 20.266C43.4619 19.309 44.6976 18.7476 46.2755 18.5817C47.8794 18.4132 49.2021 18.6796 50.2435 19.3809C51.2849 20.0822 51.8722 21.0667 52.0055 22.3342C52.1469 23.6794 51.7852 24.8421 50.9205 25.8222C50.0531 26.7765 48.8174 27.3379 47.2136 27.5065ZM78.0332 18.3432L81.0594 47.1351L72.7167 48.012L72.5332 46.2658C71.4151 47.8218 69.5497 48.7371 66.937 49.0117C65.0744 49.2075 63.308 48.9485 61.6375 48.2349C59.9902 47.4926 58.6126 46.3297 57.5046 44.7461C56.4224 43.1598 55.7658 41.2672 55.5347 39.0684C55.3036 36.8695 55.5538 34.8947 56.2851 33.1439C57.0397 31.3646 58.1468 29.9536 59.6065 28.9109C61.0893 27.8396 62.762 27.2061 64.6246 27.0104C66.9786 26.763 68.8404 27.1819 70.2099 28.2672L69.2637 19.2649L78.0332 18.3432ZM68.3146 41.9622C69.3235 41.8561 70.1132 41.407 70.6838 40.6147C71.2517 39.7965 71.4663 38.7278 71.3276 37.4085C71.1889 36.0891 70.7582 35.1013 70.0353 34.445C69.3125 33.7886 68.4466 33.5135 67.4377 33.6195C66.4288 33.7255 65.6391 34.1747 65.0685 34.967C64.4979 35.7593 64.282 36.8151 64.4206 38.1344C64.5593 39.4537 64.9914 40.4545 65.717 41.1367C66.4398 41.793 67.3057 42.0682 68.3146 41.9622ZM106.096 33.7541C106.11 33.8834 106.143 34.573 106.196 35.8229L91.451 37.3727C91.8458 38.142 92.4284 38.7085 93.1989 39.0721C93.9668 39.4099 94.8939 39.5217 95.9804 39.4075C96.9117 39.3096 97.6755 39.1116 98.2719 38.8135C98.8941 38.5127 99.5504 38.0384 100.241 37.3904L105.305 41.5267C103.475 44.0207 100.503 45.4838 96.3899 45.9161C93.8289 46.1853 91.5293 45.9562 89.4913 45.2289C87.4506 44.4756 85.8115 43.314 84.5742 41.744C83.3368 40.174 82.608 38.3413 82.3878 36.246C82.1648 34.1247 82.4837 32.1819 83.3445 30.4176C84.2284 28.6246 85.5268 27.1674 87.2397 26.0458C88.9785 24.9215 90.9861 24.2397 93.2626 24.0004C95.4097 23.7747 97.4076 23.9963 99.2564 24.6651C101.131 25.3311 102.673 26.4376 103.882 27.9844C105.116 29.5286 105.855 31.4518 106.096 33.7541ZM93.9682 29.9679C93.0628 30.0631 92.3385 30.3877 91.7952 30.9417C91.2518 31.4958 90.9372 32.235 90.8513 33.1595L97.6806 32.4417C97.4071 31.5812 96.947 30.9364 96.3004 30.5074C95.651 30.0526 94.8737 29.8728 93.9682 29.9679ZM120.924 43.3375C118.57 43.5849 116.4 43.3422 114.414 42.6094C112.45 41.848 110.852 40.6953 109.617 39.1512C108.38 37.5812 107.649 35.7355 107.426 33.6143C107.204 31.4931 107.535 29.5489 108.422 27.7818C109.306 25.9889 110.63 24.5289 112.395 23.4019C114.185 22.2721 116.258 21.5835 118.612 21.3361C120.992 21.086 123.162 21.3286 125.122 22.0642C127.109 22.797 128.707 23.9497 129.919 25.5224C131.154 27.0665 131.882 28.8992 132.105 31.0205C132.328 33.1417 131.998 35.0988 131.114 36.8917C130.253 38.6561 128.929 40.1161 127.141 41.2717C125.376 42.3987 123.304 43.0873 120.924 43.3375ZM120.206 36.5081C121.215 36.4021 122.005 35.9529 122.576 35.1606C123.143 34.3425 123.358 33.2737 123.219 31.9544C123.081 30.6351 122.65 29.6473 121.927 28.9909C121.204 28.3346 120.338 28.0594 119.33 28.1654C118.321 28.2715 117.531 28.7207 116.96 29.513C116.39 30.3052 116.174 31.3611 116.312 32.6804C116.451 33.9997 116.883 35.0004 117.609 35.6826C118.332 36.339 119.197 36.6142 120.206 36.5081Z" fill="white"/>
</g>
<g clip-path="url(#clip1)">
<rect x="63.4955" y="54.9727" width="167.3" height="51.1" transform="rotate(-6 63.4955 54.9727)" fill="#B24203" stroke="#FFC107" stroke-width="4.2"/>
<path d="M91.3823 67.6233C93.2448 67.4275 94.9998 67.7008 96.647 68.4431C98.3175 69.1567 99.6938 70.3067 100.776 71.893C101.884 73.4766 102.553 75.3678 102.785 77.5667C103.016 79.7655 102.754 81.7546 101.999 83.534C101.268 85.2847 100.161 86.6958 98.6781 87.767C97.2184 88.8097 95.5573 89.4289 93.6947 89.6247C91.3407 89.8721 89.4789 89.4531 88.1094 88.3678L89.0515 97.3313L80.282 98.253L77.2599 69.4999L85.6026 68.6231L85.7861 70.3692C86.9042 68.8132 88.7695 67.8979 91.3823 67.6233ZM90.8816 83.0155C91.8904 82.9095 92.6802 82.4603 93.2508 81.668C93.8214 80.8757 94.0373 79.8199 93.8987 78.5006C93.76 77.1813 93.3292 76.1935 92.6064 75.5371C91.8808 74.8549 91.0136 74.5668 90.0047 74.6729C88.9958 74.7789 88.2075 75.241 87.6396 76.0592C87.069 76.8515 86.853 77.9073 86.9917 79.2266C87.1304 80.5459 87.5611 81.5337 88.284 82.1901C89.0068 82.8464 89.8727 83.1216 90.8816 83.0155ZM117.603 87.1118C115.249 87.3592 113.079 87.1165 111.093 86.3837C109.13 85.6223 107.531 84.4696 106.296 82.9255C105.059 81.3555 104.329 79.5098 104.106 77.3886C103.883 75.2674 104.215 73.3232 105.101 71.5561C105.985 69.7632 107.309 68.3032 109.074 67.1762C110.865 66.0464 112.937 65.3578 115.291 65.1104C117.671 64.8603 119.841 65.1029 121.801 65.8385C123.788 66.5713 125.387 67.724 126.598 69.2967C127.833 70.8408 128.561 72.6735 128.784 74.7948C129.007 76.916 128.677 78.8731 127.793 80.666C126.932 82.4304 125.608 83.8904 123.82 85.046C122.056 86.173 119.983 86.8616 117.603 87.1118ZM116.885 80.2824C117.894 80.1764 118.684 79.7272 119.255 78.9349C119.823 78.1168 120.037 77.048 119.899 75.7287C119.76 74.4094 119.329 73.4216 118.606 72.7652C117.883 72.1089 117.018 71.8337 116.009 71.9397C115 72.0458 114.21 72.495 113.639 73.2873C113.069 74.0796 112.853 75.1354 112.992 76.4547C113.13 77.774 113.562 78.7747 114.288 79.4569C115.011 80.1133 115.877 80.3885 116.885 80.2824ZM141.816 77.5837L140.578 79.2438L141.104 84.2494L132.334 85.1711L129.308 56.3792L138.078 55.4575L139.522 69.1938L144.965 62.3838L155.326 61.2949L147.523 71.4129L158.255 82.4468L147.662 83.5602L141.816 77.5837ZM180.165 69.3944C180.179 69.5237 180.212 70.2133 180.265 71.4632L165.52 73.013C165.915 73.7823 166.497 74.3488 167.268 74.7124C168.036 75.0502 168.963 75.162 170.049 75.0478C170.981 74.9499 171.744 74.7519 172.341 74.4538C172.963 74.153 173.619 73.6787 174.31 73.0307L179.374 77.167C177.544 79.661 174.572 81.1241 170.459 81.5564C167.898 81.8256 165.598 81.5965 163.56 80.8692C161.519 80.1159 159.88 78.9543 158.643 77.3843C157.406 75.8143 156.677 73.9817 156.457 71.8863C156.234 69.7651 156.553 67.8223 157.413 66.0579C158.297 64.265 159.596 62.8077 161.309 61.6861C163.047 60.5618 165.055 59.88 167.331 59.6407C169.479 59.415 171.477 59.6366 173.325 60.3054C175.2 60.9714 176.742 62.0779 177.95 63.6247C179.185 65.1689 179.923 67.0921 180.165 69.3944ZM168.037 65.6082C167.132 65.7034 166.407 66.028 165.864 66.582C165.321 67.1361 165.006 67.8753 164.92 68.7998L171.75 68.082C171.476 67.2215 171.016 66.5767 170.369 66.1478C169.72 65.6929 168.943 65.5131 168.037 65.6082ZM190.091 59.9556C191.455 58.0075 193.651 56.8744 196.677 56.5563L197.493 64.317C196.784 64.2869 196.132 64.3031 195.537 64.3657C192.536 64.6811 191.196 66.365 191.517 69.4175L192.508 78.8467L183.738 79.7684L181.507 58.5431L189.85 57.6662L190.091 59.9556ZM209.467 77.4565C207.656 77.6468 205.851 77.6404 204.051 77.4373C202.251 77.2341 200.775 76.8792 199.624 76.3726L201.422 70.338C202.467 70.8297 203.68 71.173 205.061 71.3679C206.441 71.5628 207.765 71.5937 209.033 71.4604C210.042 71.3544 210.732 71.2034 211.104 71.0074C211.499 70.7828 211.678 70.5024 211.643 70.1661C211.608 69.8298 211.325 69.6241 210.794 69.5492C210.289 69.4715 209.46 69.4278 208.308 69.4181C206.553 69.3933 205.052 69.2896 203.803 69.107C202.552 68.8985 201.412 68.3775 200.383 67.5441C199.379 66.708 198.787 65.4233 198.604 63.6901C198.46 62.3191 198.745 61.0468 199.459 59.8733C200.172 58.6998 201.31 57.7041 202.872 56.8861C204.459 56.0653 206.404 55.534 208.707 55.292C210.311 55.1234 211.892 55.1141 213.451 55.2642C215.033 55.3856 216.397 55.6737 217.543 56.1287L215.745 62.1632C213.774 61.3242 211.676 61.0216 209.451 61.2554C207.537 61.4566 206.615 61.8935 206.686 62.5661C206.721 62.9024 207.006 63.121 207.539 63.2218C208.07 63.2968 208.899 63.3405 210.025 63.3529C211.78 63.3777 213.27 63.4957 214.495 63.7069C215.746 63.9154 216.874 64.4377 217.877 65.2738C218.906 66.1072 219.512 67.3905 219.694 69.1237C219.832 70.4431 219.545 71.6895 218.831 72.8629C218.118 74.0364 216.967 75.0335 215.38 75.8543C213.792 76.675 211.821 77.2091 209.467 77.4565Z" fill="white"/>
</g>
<defs>
<clipPath id="clip0">
<rect width="144" height="56" fill="white" transform="translate(0.287109 15.3037) rotate(-6)"/>
</clipPath>
<clipPath id="clip1">
<rect width="173" height="56" fill="white" transform="translate(60.6338 53.0901) rotate(-6)"/>
</clipPath>
</defs>
</svg>
