<svg width="22" height="23" viewBox="0 0 22 23" fill="none" xmlns="http://www.w3.org/2000/svg">
  <path fill-rule="evenodd" clip-rule="evenodd"
    d="M12.3476 15.7294C11.2117 16.2431 9.9356 16.5 8.51939 16.5C6.89665 16.5 5.43987 16.1487 4.14905 15.4461C2.85824 14.7435 1.84402 13.7651 1.10641 12.511C0.368805 11.2569 0 9.83654 0 8.25C0 6.66346 0.368805 5.24313 1.10641 3.98901C1.84402 2.73489 2.85824 1.75652 4.14905 1.05391C5.43987 0.351305 6.89665 0 8.51939 0C9.9356 0 11.2117 0.256868 12.3476 0.770604C13.4835 1.28434 14.4276 2.02473 15.18 2.99176L12.3918 5.57555C11.3887 4.33654 10.1716 3.71703 8.74067 3.71703C7.8998 3.71703 7.15112 3.90591 6.49465 4.28365C5.83818 4.6614 5.32923 5.19402 4.9678 5.88152C4.60637 6.56902 4.42566 7.35852 4.42566 8.25C4.42566 9.14148 4.60637 9.93097 4.9678 10.6185C5.32923 11.306 5.83818 11.8386 6.49465 12.2163C7.15112 12.5941 7.8998 12.783 8.74067 12.783C10.1716 12.783 11.3887 12.1635 12.3918 10.9245L15.18 13.5082C14.4276 14.4753 13.4835 15.2157 12.3476 15.7294ZM9.43242 6.7106C10.5683 6.19687 11.8444 5.94 13.2606 5.94C14.8834 5.94 16.3401 6.29131 17.6309 6.99392C18.9218 7.69653 19.936 8.67489 20.6736 9.92901C21.4112 11.1831 21.78 12.6035 21.78 14.19C21.78 15.7765 21.4112 17.1969 20.6736 18.451C19.936 19.7051 18.9218 20.6835 17.6309 21.3861C16.3401 22.0887 14.8834 22.44 13.2606 22.44C11.8444 22.44 10.5683 22.1831 9.43242 21.6694C8.2965 21.1557 7.35236 20.4153 6.6 19.4482L9.38816 16.8645C10.3913 18.1035 11.6084 18.723 13.0393 18.723C13.8802 18.723 14.6289 18.5341 15.2854 18.1563C15.9418 17.7786 16.4508 17.246 16.8122 16.5585C17.1736 15.871 17.3543 15.0815 17.3543 14.19C17.3543 13.2985 17.1736 12.509 16.8122 11.8215C16.4508 11.134 15.9418 10.6014 15.2854 10.2237C14.6289 9.84591 13.8802 9.65703 13.0393 9.65703C11.6084 9.65703 10.3913 10.2765 9.38816 11.5155L6.6 8.93176C7.35236 7.96473 8.2965 7.22434 9.43242 6.7106Z"
    fill="#707070" />
</svg>