<svg width="323" height="178" viewBox="0 0 323 178" fill="none" xmlns="http://www.w3.org/2000/svg">
<g clip-path="url(#clip0)">
<path d="M57.0433 24.9719V38.442L35.3983 90H11.4308L32.054 41.9721H19.5128V51.4476H1.39785V24.9719H57.0433ZM86.4767 47.9175C95.5807 47.9175 102.269 49.8374 106.543 53.6772C110.878 57.455 113.045 62.4405 113.045 68.6336C113.045 72.7211 111.962 76.4989 109.794 79.9671C107.688 83.3733 104.406 86.1602 99.9468 88.3278C95.4878 90.4335 89.9449 91.4864 83.3182 91.4864C78.7353 91.4864 74.1524 90.9909 69.5694 90C65.0484 89.0091 61.0848 87.5537 57.6786 85.6338L65.1104 69.4697C67.8353 71.018 70.6842 72.1947 73.6569 72.9998C76.6916 73.8049 79.6333 74.2075 82.4821 74.2075C85.0213 74.2075 87.0651 73.7739 88.6134 72.9069C90.2236 71.9779 91.0287 70.7083 91.0287 69.0981C91.0287 67.5498 90.3165 66.4041 88.8921 65.6609C87.4676 64.8558 84.8975 64.4532 81.1816 64.4532H62.3234L65.5748 24.9719H108.772V41.5076H83.5969L83.1324 47.9175H86.4767ZM179.639 38.2562C184.098 38.2562 188.186 39.34 191.902 41.5076C195.68 43.6133 198.652 46.6789 200.82 50.7045C203.049 54.6681 204.164 59.282 204.164 64.5461C204.164 69.8103 203.049 74.4552 200.82 78.4807C198.652 82.5063 195.68 85.6029 191.902 87.7705C188.186 89.8761 184.098 90.929 179.639 90.929C173.384 90.929 168.739 89.2259 165.705 85.8196V90H145.732V21.0702H166.727V42.6224C169.699 39.7116 174.004 38.2562 179.639 38.2562ZM174.623 74.5791C177.038 74.5791 179.02 73.712 180.568 71.9779C182.117 70.1819 182.891 67.7047 182.891 64.5461C182.891 61.3876 182.117 58.9413 180.568 57.2073C179.02 55.4732 177.038 54.6061 174.623 54.6061C172.208 54.6061 170.226 55.4732 168.677 57.2073C167.129 58.9413 166.355 61.3876 166.355 64.5461C166.355 67.7047 167.129 70.1819 168.677 71.9779C170.226 73.712 172.208 74.5791 174.623 74.5791ZM231.521 38.2562C240.439 38.2562 247.251 40.269 251.958 44.2945C256.665 48.2582 259.018 54.3894 259.018 62.6882V90H239.51V83.3114C237.094 88.3898 232.295 90.929 225.111 90.929C221.085 90.929 217.648 90.2477 214.799 88.8852C212.012 87.4608 209.875 85.5719 208.389 83.2185C206.965 80.8032 206.252 78.1091 206.252 75.1364C206.252 70.12 208.172 66.3112 212.012 63.7101C215.852 61.1089 221.673 59.8084 229.477 59.8084H237.93C237.249 55.8448 234.06 53.863 228.362 53.863C226.071 53.863 223.748 54.2345 221.395 54.9777C219.041 55.659 217.029 56.6189 215.356 57.8575L208.668 44.0158C211.579 42.2198 215.078 40.8264 219.165 39.8355C223.315 38.7826 227.433 38.2562 231.521 38.2562ZM231.428 78.2949C232.914 78.2949 234.245 77.8924 235.422 77.0873C236.599 76.2822 237.466 75.0745 238.023 73.4643V69.9342H232.821C228.548 69.9342 226.411 71.3586 226.411 74.2075C226.411 75.3842 226.845 76.3751 227.712 77.1802C228.641 77.9234 229.879 78.2949 231.428 78.2949ZM267.344 21.0702H288.339V90H267.344V21.0702ZM296.897 21.0702H317.892V90H296.897V21.0702Z" fill="white"/>
<g clip-path="url(#clip1)">
<rect x="52.7073" y="101.532" width="199" height="73" transform="rotate(-6 52.7073 101.532)" fill="#28734F" stroke="#FFC107" stroke-width="6"/>
<path d="M91.2895 120.557C93.9503 120.278 96.4574 120.668 98.8106 121.728C101.197 122.748 103.163 124.391 104.709 126.657C106.288 128.882 107.243 131.566 107.573 134.707C107.903 137.848 107.529 140.69 106.451 143.232C105.41 145.77 103.83 147.804 101.712 149.334C99.6268 150.824 97.2538 151.708 94.593 151.988C90.8605 152.38 87.9821 151.655 85.9576 149.813L86.2198 152.308L74.3017 153.56L69.9786 112.429L82.5065 111.112L83.8582 123.973C85.4495 122.049 87.9266 120.911 91.2895 120.557ZM90.5742 142.546C92.0155 142.395 93.1437 141.753 93.9588 140.621C94.77 139.453 95.0766 137.926 94.8785 136.041C94.6804 134.156 94.0651 132.745 93.0324 131.807C91.9998 130.87 90.7628 130.477 89.3216 130.628C87.8803 130.78 86.7521 131.421 85.937 132.553C85.1219 133.685 84.8134 135.193 85.0114 137.078C85.2095 138.963 85.8268 140.392 86.8634 141.367C87.896 142.305 89.133 142.698 90.5742 142.546ZM109.483 119.206L122.011 117.889L125.198 148.211L112.67 149.528L109.483 119.206ZM115.49 116.108C113.236 116.345 111.345 115.946 109.816 114.911C108.321 113.835 107.476 112.374 107.281 110.526C107.087 108.678 107.612 107.091 108.855 105.765C110.131 104.398 111.896 103.596 114.15 103.359C116.442 103.118 118.331 103.498 119.819 104.5C121.307 105.502 122.146 106.909 122.336 108.719C122.538 110.641 122.021 112.302 120.786 113.702C119.547 115.065 117.782 115.867 115.49 116.108ZM148.124 114.584C151.856 114.192 154.968 115.004 157.459 117.021C159.988 119.035 161.49 122.314 161.968 126.86L163.786 144.155L151.258 145.472L149.668 130.339C149.302 126.865 147.882 125.258 145.406 125.518C144.002 125.666 142.908 126.285 142.126 127.376C141.377 128.426 141.114 130.005 141.335 132.111L142.832 146.357L130.304 147.674L127.118 117.352L139.036 116.1L139.35 119.093C140.409 117.786 141.683 116.755 143.173 116.001C144.663 115.247 146.313 114.774 148.124 114.584ZM200.005 109.691L202.557 133.971C203.163 139.736 202.009 144.229 199.097 147.449C196.226 150.703 191.834 152.64 185.921 153.262C182.891 153.58 180.029 153.545 177.335 153.155C174.645 152.803 172.312 152.114 170.336 151.089L173.652 142.109C174.928 142.872 176.5 143.435 178.369 143.799C180.238 144.163 182.004 144.258 183.667 144.083C186.18 143.819 187.953 143.091 188.986 141.899C190.019 140.707 190.427 139.076 190.209 137.006L190.151 136.452C188.492 138.793 185.814 140.158 182.119 140.547C179.532 140.819 177.049 140.482 174.67 139.536C172.325 138.55 170.371 137.018 168.807 134.94C167.24 132.826 166.305 130.327 166.002 127.445C165.699 124.562 166.096 121.942 167.193 119.585C168.291 117.228 169.886 115.342 171.979 113.926C174.105 112.47 176.461 111.605 179.048 111.334C183.187 110.899 186.32 111.914 188.448 114.381L188.087 110.944L200.005 109.691ZM184.419 130.441C185.897 130.286 187.07 129.714 187.938 128.726C188.839 127.697 189.213 126.462 189.062 125.021C188.91 123.58 188.289 122.468 187.198 121.686C186.144 120.9 184.878 120.585 183.4 120.74C181.884 120.899 180.675 121.475 179.77 122.467C178.902 123.455 178.544 124.669 178.696 126.111C178.847 127.552 179.47 128.682 180.565 129.501C181.656 130.283 182.941 130.596 184.419 130.441ZM224.364 138.348C221.001 138.702 217.901 138.355 215.063 137.308C212.259 136.221 209.975 134.574 208.211 132.368C206.443 130.125 205.4 127.489 205.082 124.458C204.763 121.428 205.237 118.651 206.504 116.126C207.766 113.565 209.658 111.479 212.179 109.869C214.737 108.255 217.698 107.271 221.061 106.918C224.46 106.561 227.561 106.907 230.361 107.958C233.199 109.005 235.483 110.652 237.214 112.898C238.977 115.104 240.019 117.722 240.337 120.753C240.656 123.783 240.183 126.579 238.921 129.14C237.691 131.661 235.799 133.746 233.245 135.397C230.724 137.007 227.764 137.991 224.364 138.348ZM223.339 128.592C224.78 128.441 225.908 127.799 226.723 126.667C227.534 125.498 227.841 123.972 227.643 122.087C227.445 120.202 226.829 118.791 225.797 117.853C224.764 116.916 223.527 116.523 222.086 116.674C220.645 116.826 219.516 117.467 218.701 118.599C217.886 119.731 217.578 121.239 217.776 123.124C217.974 125.009 218.591 126.438 219.628 127.413C220.66 128.351 221.897 128.744 223.339 128.592Z" fill="white"/>
</g>
</g>
<defs>
<clipPath id="clip0">
<rect width="323" height="178" fill="white"/>
</clipPath>
<clipPath id="clip1">
<rect width="205" height="79" fill="white" transform="translate(49.4102 98.8624) rotate(-6)"/>
</clipPath>
</defs>
</svg>
