<svg width="106" height="126" viewBox="0 0 106 126" fill="none" xmlns="http://www.w3.org/2000/svg">
<path d="M15.0344 81.5555C15.6183 78.1939 16.3482 74.9785 17.37 71.6169C17.5159 71.3245 17.516 71.0322 17.6619 70.7399C18.8297 67.086 20.1432 63.5782 21.6029 59.9243C21.6029 59.7781 21.603 59.7781 21.749 59.632C23.3546 55.978 25.1061 52.4703 27.1496 48.9625C27.1496 48.8164 27.2955 48.8163 27.2955 48.6702C29.1931 45.3086 31.3826 42.0932 33.718 38.8777C33.864 38.5854 34.1561 38.2931 34.302 38.0008C36.3455 35.2238 38.6809 32.4468 41.0163 29.9621C41.4542 29.3775 42.0382 28.939 42.4761 28.3544C44.3736 26.4544 46.2712 24.7005 48.1687 22.9466C49.0445 22.2158 49.9202 21.3389 50.796 20.6081C53.5694 18.4158 56.4888 16.3696 59.4081 14.6157C61.3057 13.4464 63.2032 12.5695 65.1008 11.6925C65.6847 11.4002 66.2685 11.2541 66.8523 10.9618C67.8741 10.5233 69.0418 10.231 70.0636 9.79248C70.7934 9.64632 71.3773 9.35405 72.1071 9.2079C72.691 9.06174 73.4209 8.91554 74.0047 8.76939C74.8805 8.62323 75.6103 8.47709 76.4861 8.33093C76.924 8.33093 77.3618 8.1848 77.7997 8.1848C78.8215 8.1848 79.8432 8.03864 80.719 8.1848C80.865 8.1848 81.157 8.1848 81.4489 8.1848C82.6166 8.1848 83.7843 8.33094 84.806 8.62325C85.098 8.62325 85.3899 8.76939 85.5359 8.76939C86.4117 8.91554 87.2875 9.2079 88.0173 9.50022C88.3092 9.64637 88.6012 9.64632 88.7472 9.79248C89.7689 10.231 90.7906 10.6695 91.8123 11.2541L77.7997 3.06928C77.6538 3.06928 77.6537 2.92315 77.5078 2.92315C76.7779 2.48468 76.048 2.19234 75.1722 1.75387C75.0263 1.75387 74.8803 1.60773 74.7344 1.60773C74.4424 1.46158 74.1507 1.46157 74.0047 1.31541C73.5668 1.16926 73.2749 1.02312 72.837 0.876961C72.3991 0.730804 71.961 0.730797 71.5231 0.584641C71.2312 0.584641 70.9393 0.438453 70.6473 0.438453C70.5014 0.438453 70.3554 0.29232 70.2095 0.29232C69.3337 0.146164 68.4578 0 67.4361 0H67.2902C66.9983 0 66.8523 0 66.5603 0C65.8305 0 65.1008 0 64.3709 0C64.079 0 63.933 -2.45287e-05 63.6411 0.146132C63.2032 0.146132 62.7653 0.29232 62.3274 0.29232C61.8895 0.29232 61.4517 0.292296 61.0138 0.438453C60.5759 0.438453 60.2839 0.584616 59.846 0.730773C59.2622 0.87693 58.5323 1.02307 57.9484 1.16923C57.6565 1.31538 57.2185 1.31541 56.9265 1.31541C56.6346 1.46157 56.1968 1.60773 55.9049 1.60773C54.8831 1.90005 53.7154 2.33849 52.6936 2.77696C52.2557 2.92312 51.9638 3.06931 51.5259 3.21547C51.3799 3.36162 51.0881 3.50779 50.9421 3.50779C49.0446 4.38473 47.147 5.26163 45.2495 6.43088C42.3301 8.18476 39.4107 10.231 36.6373 12.4233C35.7615 13.1541 34.8858 14.031 34.01 14.7618C32.6963 15.9311 31.2367 17.1003 29.923 18.2696C29.3391 18.8542 28.7554 19.4389 28.1715 20.1697C27.7336 20.7543 27.1496 21.1928 26.7118 21.7774C26.1279 22.362 25.5441 22.9466 24.9602 23.6774C23.6465 25.139 22.4788 26.6005 21.3111 28.2083C20.8732 28.7929 20.4353 29.3775 20.1433 29.816C19.9974 30.1083 19.7053 30.4006 19.5594 30.6929C19.1215 31.2775 18.6835 31.716 18.3916 32.3006C17.5158 33.6161 16.6401 34.9315 15.7643 36.2469C14.8885 37.5623 14.1586 38.8777 13.4288 40.047C13.4288 40.1931 13.2829 40.1931 13.2829 40.3393C13.2829 40.4854 13.1368 40.4854 13.1368 40.6316C12.553 41.6547 11.9692 42.8239 11.3853 43.847C10.6555 45.1625 10.0715 46.4779 9.48768 47.7933C8.90382 48.9625 8.31995 50.1318 7.88205 51.301C7.88205 51.301 7.88213 51.4472 7.73616 51.4472C7.73616 51.5934 7.73624 51.5934 7.59028 51.7395C7.00642 53.0549 6.42254 54.5165 5.98465 55.8319C5.40078 57.2935 4.96288 58.755 4.37902 60.2166C4.08708 60.9474 3.94099 61.6782 3.79503 62.409C3.64906 62.7013 3.64922 62.9936 3.50326 63.2859C3.35729 63.8705 3.21134 64.309 3.06538 64.8936C2.62748 66.6475 2.18941 68.4014 1.75152 70.1553C1.45959 71.1784 1.45968 72.2015 1.16775 73.3707C1.02179 73.9554 1.02172 74.3938 0.875759 74.9785C0.729793 75.4169 0.72973 76.0015 0.583765 76.44C0.145868 79.5093 0 82.4324 0 85.3556C0 99.8251 5.10885 109.91 13.2829 114.587L27.2955 122.772C19.1214 117.949 14.0128 107.864 14.0128 93.5404C14.0128 90.1788 14.3047 86.671 14.8886 83.0171C14.8886 82.5786 14.8885 81.9939 15.0344 81.5555Z" fill="url(#paint0_linear)"/>
<path d="M59.4074 14.7634C84.6594 0.147712 105.241 11.8403 105.241 40.7793C105.387 69.8645 84.9512 105.088 59.6991 119.704C34.593 134.32 14.0119 122.627 13.8659 93.5419C13.8659 64.6029 34.1553 29.2329 59.4074 14.7634Z" fill="url(#paint1_linear)"/>
<defs>
<linearGradient id="paint0_linear" x1="51.5784" y1="25.7967" x2="33.3353" y2="78.7975" gradientUnits="userSpaceOnUse">
<stop stop-color="#FBFF5C"/>
<stop offset="0.2842" stop-color="#FBD553"/>
<stop offset="0.5977" stop-color="#FAAE4B"/>
<stop offset="0.8474" stop-color="#FA9546"/>
<stop offset="1" stop-color="#FA8C44"/>
</linearGradient>
<linearGradient id="paint1_linear" x1="28.2231" y1="42.805" x2="151.613" y2="138.741" gradientUnits="userSpaceOnUse">
<stop stop-color="#FBFF5C"/>
<stop offset="0.2842" stop-color="#FBD553"/>
<stop offset="0.5977" stop-color="#FAAE4B"/>
<stop offset="0.8474" stop-color="#FA9546"/>
<stop offset="1" stop-color="#FA8C44"/>
</linearGradient>
</defs>
</svg>
