<svg width="20" height="20" viewBox="0 0 20 20" fill="none" xmlns="http://www.w3.org/2000/svg">
<path fill-rule="evenodd" clip-rule="evenodd" d="M2.59987 8.49957C3.20966 4.24597 6.85066 0.962646 11.25 0.962646C16.0748 0.962646 20 4.90776 20 9.75575C20 14.6037 16.0748 18.5489 11.25 18.5489C8.443 18.5489 5.78734 17.1811 4.1455 14.8896L6.1743 13.4224C7.34741 15.0588 9.24501 16.0365 11.25 16.0365C14.6961 16.0365 17.5 13.2187 17.5 9.75571C17.5 6.29271 14.6961 3.47494 11.25 3.47494C8.23197 3.47494 5.70716 5.63642 5.12635 8.49957H7.50002L3.75001 12.268L0 8.49957H2.59987ZM10 10.8174V5.79024L12.5768 5.79027V9.41699L15.1724 10.9116L13.8463 13.0316L10 10.8174Z" fill="#A832DD"/>
</svg>
