<svg width="11" height="14" viewBox="0 0 11 14" fill="none" xmlns="http://www.w3.org/2000/svg">
<path d="M5.04489 6.44416C6.50989 6.44416 7.69761 5.0016 7.69761 3.2221C7.69761 1.44256 7.30767 0 5.04489 0C2.78211 0 2.39209 1.44256 2.39209 3.2221C2.39209 5.0016 3.57982 6.44416 5.04489 6.44416Z" fill="white"/>
<path d="M0.081932 12.2634C0.0803508 12.007 0.0787696 12.1912 0.081932 12.2634V12.2634Z" fill="black"/>
<path d="M10.1012 12.3053C10.1062 12.2656 10.1029 12.0298 10.1012 12.3053V12.3053Z" fill="black"/>
<path d="M10.0493 12.0573C10.0002 8.95734 9.59533 8.07403 6.49724 7.51489C6.49724 7.51489 6.06113 8.0706 5.04466 8.0706C4.02819 8.0706 3.59202 7.51489 3.59202 7.51489C0.527733 8.06793 0.098255 8.93814 0.0417844 11.9566C0.0371538 12.203 0.0350079 12.216 0.0341797 12.1874C0.0343679 12.241 0.0345938 12.3402 0.0345938 12.5131C0.0345938 12.5131 0.772175 14 5.04466 14C9.31708 14 10.0547 12.5131 10.0547 12.5131C10.0547 12.402 10.0548 12.3247 10.0549 12.2722C10.0541 12.2899 10.0524 12.2556 10.0493 12.0573Z" fill="white"/>
</svg>
