        <svg width="25" height="24" viewBox="0 0 25 24" fill="none" xmlns="http://www.w3.org/2000/svg">
          <g filter="url(#filter0_d)">
            <circle cx="9.5" cy="11.5" r="7.5" fill="white" stroke="#979797" />
            <path fill-rule="evenodd" clip-rule="evenodd"
              d="M5.53857 12.0768C5.53857 9.57439 7.57451 7.53845 10.0771 7.53845C12.5796 7.53845 14.6155 9.57439 14.6155 12.0768C14.6155 14.5794 12.5796 16.6154 10.0771 16.6154C7.57451 16.6154 5.53857 14.5794 5.53857 12.0768ZM9.5203 14.4735L12.7717 11.2221C13.0446 10.9492 13.0446 10.5067 12.7717 10.2339C12.4987 9.96093 12.0562 9.96093 11.7834 10.2339L9.02599 12.9911L8.27763 12.2427C8.00467 11.9698 7.56215 11.9698 7.28937 12.2427C7.01641 12.5157 7.01641 12.9582 7.28937 13.231L8.53187 14.4735C8.66835 14.6102 8.84717 14.6783 9.02599 14.6783C9.20482 14.6783 9.38382 14.61 9.5203 14.4735Z"
              fill="#538C31" />
            <path fill-rule="evenodd" clip-rule="evenodd"
              d="M20.2833 6.49314L20.284 6.51181C20.3372 9.3309 20.4032 12.8394 19.2348 16.0274C18.5941 17.7757 17.6247 19.2955 16.3537 20.5448C14.9067 21.967 13.0117 23.0967 10.7216 23.9028C10.6466 23.9291 10.5686 23.9506 10.4896 23.9665C10.3784 23.9888 10.2662 24 10.1541 24C10.042 24 9.92995 23.9888 9.8186 23.9665C9.73964 23.9506 9.66213 23.9293 9.58753 23.9031C7.29468 23.0986 5.39773 21.9694 3.94945 20.547C2.67784 19.298 1.70845 17.7786 1.06837 16.0307C-0.0957111 12.8522 -0.0294834 9.35031 0.0238262 6.53653L0.0249179 6.49314C0.0352887 6.26096 0.0423845 6.01706 0.0463873 5.74753C0.0658553 4.42405 1.11131 3.32945 2.42622 3.25565C5.16811 3.10148 7.28922 2.2017 9.10156 0.423934L9.11703 0.409103C9.70835 -0.136368 10.6001 -0.136368 11.1912 0.409103L11.2067 0.423934C13.019 2.2017 15.1401 3.10148 17.882 3.25547C19.1971 3.32945 20.2424 4.42405 20.2618 5.74735C20.266 6.01871 20.2729 6.26261 20.2833 6.49314ZM4.21054 12.0004C4.21054 15.2985 6.87657 17.9815 10.1537 17.9815C13.4307 17.9815 16.0969 15.2985 16.0969 12.0004C16.0969 8.7023 13.4307 6.01926 10.1537 6.01926C6.87657 6.01926 4.21054 8.7023 4.21054 12.0004Z"
              fill="#538C31" />
          </g>
          <defs>
            <filter id="filter0_d" x="-4" y="0" width="28.3077" height="32" filterUnits="userSpaceOnUse"
              color-interpolation-filters="sRGB">
              <feFlood flood-opacity="0" result="BackgroundImageFix" />
              <feColorMatrix in="SourceAlpha" type="matrix" values="0 0 0 0 0 0 0 0 0 0 0 0 0 0 0 0 0 0 127 0" />
              <feOffset dy="4" />
              <feGaussianBlur stdDeviation="2" />
              <feColorMatrix type="matrix" values="0 0 0 0 0 0 0 0 0 0 0 0 0 0 0 0 0 0 0.25 0" />
              <feBlend mode="normal" in2="BackgroundImageFix" result="effect1_dropShadow" />
              <feBlend mode="normal" in="SourceGraphic" in2="effect1_dropShadow" result="shape" />
            </filter>
          </defs>
        </svg>