<svg width="33" height="34" viewBox="0 0 33 34" fill="none" xmlns="http://www.w3.org/2000/svg">
<path fill-rule="evenodd" clip-rule="evenodd" d="M18.7085 23.8324C16.9874 24.6108 15.0539 25 12.9082 25C10.4495 25 8.24223 24.4677 6.28644 23.4032C4.33066 22.3386 2.79397 20.8562 1.67638 18.956C0.558795 17.0559 0 14.9038 0 12.5C0 10.0962 0.558795 7.94414 1.67638 6.04396C2.79397 4.14377 4.33066 2.6614 6.28644 1.59684C8.24223 0.53228 10.4495 0 12.9082 0C15.0539 0 16.9874 0.389194 18.7085 1.16758C20.4295 1.94597 21.8601 3.06777 23 4.53297L18.7755 8.4478C17.2556 6.57051 15.4116 5.63187 13.2434 5.63187C11.9694 5.63187 10.835 5.91804 9.84038 6.49038C8.84572 7.06273 8.07459 7.86973 7.52697 8.9114C6.97935 9.95307 6.70554 11.1493 6.70554 12.5C6.70554 13.8507 6.97935 15.0469 7.52697 16.0886C8.07459 17.1303 8.84572 17.9373 9.84038 18.5096C10.835 19.082 11.9694 19.3681 13.2434 19.3681C15.4116 19.3681 17.2556 18.4295 18.7755 16.5522L23 20.467C21.8601 21.9322 20.4295 23.054 18.7085 23.8324ZM14.2915 10.1676C16.0126 9.38919 17.9461 9 20.0918 9C22.5505 9 24.7578 9.53228 26.7136 10.5968C28.6693 11.6614 30.206 13.1438 31.3236 15.044C32.4412 16.9441 33 19.0962 33 21.5C33 23.9038 32.4412 26.0559 31.3236 27.956C30.206 29.8562 28.6693 31.3386 26.7136 32.4032C24.7578 33.4677 22.5505 34 20.0918 34C17.9461 34 16.0126 33.6108 14.2915 32.8324C12.5705 32.054 11.1399 30.9322 10 29.467L14.2245 25.5522C15.7444 27.4295 17.5884 28.3681 19.7566 28.3681C21.0306 28.3681 22.165 28.082 23.1596 27.5096C24.1543 26.9373 24.9254 26.1303 25.473 25.0886C26.0207 24.0469 26.2945 22.8507 26.2945 21.5C26.2945 20.1493 26.0207 18.9531 25.473 17.9114C24.9254 16.8697 24.1543 16.0627 23.1596 15.4904C22.165 14.918 21.0306 14.6319 19.7566 14.6319C17.5884 14.6319 15.7444 15.5705 14.2245 17.4478L10 13.533C11.1399 12.0678 12.5705 10.946 14.2915 10.1676Z" fill="url(#paint0_linear)"/>
<defs>
<linearGradient id="paint0_linear" x1="-0.199098" y1="-4.05493" x2="-0.199098" y2="34" gradientUnits="userSpaceOnUse">
<stop stop-color="#FFDE00"/>
<stop offset="1" stop-color="#FF9400"/>
</linearGradient>
</defs>
</svg>
