<svg width="74" height="51" viewBox="0 0 74 51" fill="none" xmlns="http://www.w3.org/2000/svg">
<g filter="url(#filter0_dddii)">
<mask id="path-1-inside-1" fill="white">
<path fill-rule="evenodd" clip-rule="evenodd" d="M47.5478 36.6C50.6478 36.6 53.3894 35.875 55.7728 34.425C58.1561 32.975 60.0228 30.875 61.3728 28.125C62.7228 25.375 63.3978 22.1 63.3978 18.3C63.3978 14.5 62.7228 11.225 61.3728 8.475C60.0228 5.725 58.1561 3.625 55.7728 2.175C53.3894 0.725 50.6478 0 47.5478 0C44.4478 0 41.7061 0.725 39.3228 2.175C36.9394 3.625 35.0728 5.725 33.7228 8.475C32.3728 11.225 31.6978 14.5 31.6978 18.3C31.6978 22.1 32.3728 25.375 33.7228 28.125C35.0728 30.875 36.9394 32.975 39.3228 34.425C41.7061 35.875 44.4478 36.6 47.5478 36.6ZM27.8 35.8V0.8H10V9.7H16V35.8H27.8ZM43.5478 18.3C43.5478 24.2 44.8811 27.15 47.5478 27.15C50.2144 27.15 51.5478 24.2 51.5478 18.3C51.5478 12.4 50.2144 9.45 47.5478 9.45C44.8811 9.45 43.5478 12.4 43.5478 18.3Z"/>
</mask>
<path fill-rule="evenodd" clip-rule="evenodd" d="M47.5478 36.6C50.6478 36.6 53.3894 35.875 55.7728 34.425C58.1561 32.975 60.0228 30.875 61.3728 28.125C62.7228 25.375 63.3978 22.1 63.3978 18.3C63.3978 14.5 62.7228 11.225 61.3728 8.475C60.0228 5.725 58.1561 3.625 55.7728 2.175C53.3894 0.725 50.6478 0 47.5478 0C44.4478 0 41.7061 0.725 39.3228 2.175C36.9394 3.625 35.0728 5.725 33.7228 8.475C32.3728 11.225 31.6978 14.5 31.6978 18.3C31.6978 22.1 32.3728 25.375 33.7228 28.125C35.0728 30.875 36.9394 32.975 39.3228 34.425C41.7061 35.875 44.4478 36.6 47.5478 36.6ZM27.8 35.8V0.8H10V9.7H16V35.8H27.8ZM43.5478 18.3C43.5478 24.2 44.8811 27.15 47.5478 27.15C50.2144 27.15 51.5478 24.2 51.5478 18.3C51.5478 12.4 50.2144 9.45 47.5478 9.45C44.8811 9.45 43.5478 12.4 43.5478 18.3Z" fill="#FFBC00"/>
<path d="M55.7728 34.425L56.2925 35.2793L55.7728 34.425ZM61.3728 28.125L62.2704 28.5657V28.5657L61.3728 28.125ZM61.3728 8.475L62.2704 8.03433V8.03433L61.3728 8.475ZM55.7728 2.175L56.2925 1.32069V1.32069L55.7728 2.175ZM27.8 0.8H28.8V-0.2H27.8V0.8ZM27.8 35.8V36.8H28.8V35.8H27.8ZM10 0.8V-0.2H9V0.8H10ZM10 9.7H9V10.7H10V9.7ZM16 9.7H17V8.7H16V9.7ZM16 35.8H15V36.8H16V35.8ZM55.253 33.5707C53.0433 34.9151 50.4854 35.6 47.5478 35.6V37.6C50.8101 37.6 53.7356 36.8349 56.2925 35.2793L55.253 33.5707ZM60.4751 27.6843C59.2005 30.2807 57.4577 32.2294 55.253 33.5707L56.2925 35.2793C58.8545 33.7206 60.845 31.4693 62.2704 28.5657L60.4751 27.6843ZM62.3978 18.3C62.3978 21.9831 61.7436 25.1004 60.4751 27.6843L62.2704 28.5657C63.702 25.6496 64.3978 22.2169 64.3978 18.3H62.3978ZM60.4751 8.91567C61.7436 11.4996 62.3978 14.6169 62.3978 18.3H64.3978C64.3978 14.3831 63.702 10.9504 62.2704 8.03433L60.4751 8.91567ZM55.253 3.02931C57.4577 4.37064 59.2005 6.31933 60.4751 8.91567L62.2704 8.03433C60.845 5.13067 58.8545 2.87936 56.2925 1.32069L55.253 3.02931ZM47.5478 1C50.4854 1 53.0433 1.68495 55.253 3.02931L56.2925 1.32069C53.7356 -0.234947 50.8101 -1 47.5478 -1V1ZM39.8425 3.02931C42.0522 1.68495 44.6101 1 47.5478 1V-1C44.2854 -1 41.36 -0.234947 38.803 1.32069L39.8425 3.02931ZM34.6204 8.91567C35.895 6.31933 37.6378 4.37064 39.8425 3.02931L38.803 1.32069C36.2411 2.87936 34.2505 5.13067 32.8251 8.03433L34.6204 8.91567ZM32.6978 18.3C32.6978 14.6169 33.352 11.4996 34.6204 8.91567L32.8251 8.03433C31.3936 10.9504 30.6978 14.3831 30.6978 18.3H32.6978ZM34.6204 27.6843C33.352 25.1004 32.6978 21.9831 32.6978 18.3H30.6978C30.6978 22.2169 31.3936 25.6496 32.8251 28.5657L34.6204 27.6843ZM39.8425 33.5707C37.6378 32.2294 35.895 30.2807 34.6204 27.6843L32.8251 28.5657C34.2505 31.4693 36.2411 33.7206 38.803 35.2793L39.8425 33.5707ZM47.5478 35.6C44.6101 35.6 42.0522 34.9151 39.8425 33.5707L38.803 35.2793C41.36 36.8349 44.2854 37.6 47.5478 37.6V35.6ZM26.8 0.8V35.8H28.8V0.8H26.8ZM10 1.8H27.8V-0.2H10V1.8ZM11 9.7V0.8H9V9.7H11ZM16 8.7H10V10.7H16V8.7ZM17 35.8V9.7H15V35.8H17ZM27.8 34.8H16V36.8H27.8V34.8ZM47.5478 26.15C47.0782 26.15 46.7065 26.0245 46.3913 25.7921C46.0647 25.5512 45.7426 25.153 45.459 24.5256C44.8809 23.2466 44.5478 21.2059 44.5478 18.3H42.5478C42.5478 21.2941 42.8813 23.6784 43.6365 25.3494C44.0196 26.197 44.5309 26.9051 45.2042 27.4017C45.889 27.9067 46.684 28.15 47.5478 28.15V26.15ZM50.5478 18.3C50.5478 21.2059 50.2146 23.2466 49.6365 24.5256C49.353 25.153 49.0309 25.5512 48.7042 25.7921C48.389 26.0245 48.0174 26.15 47.5478 26.15V28.15C48.4115 28.15 49.2065 27.9067 49.8913 27.4017C50.5647 26.9051 51.0759 26.197 51.459 25.3494C52.2143 23.6784 52.5478 21.2941 52.5478 18.3H50.5478ZM47.5478 10.45C48.0174 10.45 48.389 10.5755 48.7042 10.8079C49.0309 11.0488 49.353 11.447 49.6365 12.0744C50.2146 13.3534 50.5478 15.3941 50.5478 18.3H52.5478C52.5478 15.3059 52.2143 12.9216 51.459 11.2506C51.0759 10.403 50.5647 9.69491 49.8913 9.19832C49.2065 8.69329 48.4115 8.45 47.5478 8.45V10.45ZM44.5478 18.3C44.5478 15.3941 44.8809 13.3534 45.459 12.0744C45.7426 11.447 46.0647 11.0488 46.3913 10.8079C46.7065 10.5755 47.0782 10.45 47.5478 10.45V8.45C46.684 8.45 45.889 8.69329 45.2042 9.19832C44.5309 9.69491 44.0196 10.403 43.6365 11.2506C42.8813 12.9216 42.5478 15.3059 42.5478 18.3H44.5478Z" fill="url(#paint0_linear)" mask="url(#path-1-inside-1)"/>
</g>
<defs>
<filter id="filter0_dddii" x="0" y="-6" width="73.3978" height="56.6" filterUnits="userSpaceOnUse" color-interpolation-filters="sRGB">
<feFlood flood-opacity="0" result="BackgroundImageFix"/>
<feColorMatrix in="SourceAlpha" type="matrix" values="0 0 0 0 0 0 0 0 0 0 0 0 0 0 0 0 0 0 127 0"/>
<feOffset dy="4"/>
<feGaussianBlur stdDeviation="5"/>
<feColorMatrix type="matrix" values="0 0 0 0 1 0 0 0 0 0.576923 0 0 0 0 0 0 0 0 0.654611 0"/>
<feBlend mode="normal" in2="BackgroundImageFix" result="effect1_dropShadow"/>
<feColorMatrix in="SourceAlpha" type="matrix" values="0 0 0 0 0 0 0 0 0 0 0 0 0 0 0 0 0 0 127 0"/>
<feOffset dy="2"/>
<feGaussianBlur stdDeviation="3"/>
<feColorMatrix type="matrix" values="0 0 0 0 0 0 0 0 0 0 0 0 0 0 0 0 0 0 0.5 0"/>
<feBlend mode="normal" in2="effect1_dropShadow" result="effect2_dropShadow"/>
<feColorMatrix in="SourceAlpha" type="matrix" values="0 0 0 0 0 0 0 0 0 0 0 0 0 0 0 0 0 0 127 0"/>
<feOffset dy="2"/>
<feColorMatrix type="matrix" values="0 0 0 0 0.728176 0 0 0 0 0.370214 0 0 0 0 0 0 0 0 1 0"/>
<feBlend mode="normal" in2="effect2_dropShadow" result="effect3_dropShadow"/>
<feBlend mode="normal" in="SourceGraphic" in2="effect3_dropShadow" result="shape"/>
<feColorMatrix in="SourceAlpha" type="matrix" values="0 0 0 0 0 0 0 0 0 0 0 0 0 0 0 0 0 0 127 0" result="hardAlpha"/>
<feOffset dy="3"/>
<feGaussianBlur stdDeviation="3"/>
<feComposite in2="hardAlpha" operator="arithmetic" k2="-1" k3="1"/>
<feColorMatrix type="matrix" values="0 0 0 0 0.983582 0 0 0 0 0.153441 0 0 0 0 0.153441 0 0 0 0.5 0"/>
<feBlend mode="normal" in2="shape" result="effect4_innerShadow"/>
<feColorMatrix in="SourceAlpha" type="matrix" values="0 0 0 0 0 0 0 0 0 0 0 0 0 0 0 0 0 0 127 0" result="hardAlpha"/>
<feOffset dy="1"/>
<feComposite in2="hardAlpha" operator="arithmetic" k2="-1" k3="1"/>
<feColorMatrix type="matrix" values="0 0 0 0 1 0 0 0 0 1 0 0 0 0 1 0 0 0 0.5 0"/>
<feBlend mode="normal" in2="effect4_innerShadow" result="effect5_innerShadow"/>
</filter>
<linearGradient id="paint0_linear" x1="9.67784" y1="-4.36501" x2="9.67784" y2="36.6" gradientUnits="userSpaceOnUse">
<stop stop-color="#FFDE00"/>
<stop offset="1" stop-color="#FF9400"/>
</linearGradient>
</defs>
</svg>
