<svg width="50" height="50" viewBox="0 0 50 50" fill="none" xmlns="http://www.w3.org/2000/svg">
<g filter="url(#filter0_dddii)">
<path d="M23.8 35.8C27.3667 35.8 30.35 35.2333 32.75 34.1C35.15 32.9667 36.925 31.4917 38.075 29.675C39.225 27.8583 39.8 25.9 39.8 23.8C39.8 21.3333 39.075 19.225 37.625 17.475C36.175 15.725 34.1 14.5167 31.4 13.85L37.9 7.25V0H11.8V8.9H24.3L19.15 14.15V21.4H23.8C26.5667 21.4 27.95 22.2 27.95 23.8C27.95 24.6667 27.5333 25.3333 26.7 25.8C25.8667 26.2667 24.7667 26.5 23.4 26.5C21.8667 26.5 20.275 26.2833 18.625 25.85C16.975 25.4167 15.4333 24.7833 14 23.95L10 32.65C11.8333 33.6833 13.975 34.4667 16.425 35C18.875 35.5333 21.3333 35.8 23.8 35.8Z" fill="#FFBC00"/>
<path d="M23.8 35.8C27.3667 35.8 30.35 35.2333 32.75 34.1C35.15 32.9667 36.925 31.4917 38.075 29.675C39.225 27.8583 39.8 25.9 39.8 23.8C39.8 21.3333 39.075 19.225 37.625 17.475C36.175 15.725 34.1 14.5167 31.4 13.85L37.9 7.25V0H11.8V8.9H24.3L19.15 14.15V21.4H23.8C26.5667 21.4 27.95 22.2 27.95 23.8C27.95 24.6667 27.5333 25.3333 26.7 25.8C25.8667 26.2667 24.7667 26.5 23.4 26.5C21.8667 26.5 20.275 26.2833 18.625 25.85C16.975 25.4167 15.4333 24.7833 14 23.95L10 32.65C11.8333 33.6833 13.975 34.4667 16.425 35C18.875 35.5333 21.3333 35.8 23.8 35.8Z" fill="#FFBC00"/>
<path d="M31.0438 13.4992L30.4275 14.1249L31.2801 14.3354C33.8999 14.9823 35.8724 16.1434 37.24 17.794C38.6091 19.4464 39.3 21.4391 39.3 23.8C39.3 25.803 38.7532 27.6689 37.6525 29.4076C36.564 31.1272 34.8709 32.5455 32.5365 33.6479C30.2221 34.7408 27.3169 35.3 23.8 35.3C21.3697 35.3 18.947 35.0373 16.5314 34.5114C14.3007 34.0259 12.3417 33.3321 10.6491 32.4351L14.2278 24.6514C15.5639 25.3763 16.9877 25.937 18.498 26.3336C20.1849 26.7766 21.8193 27 23.4 27C24.8176 27 26.011 26.7589 26.9443 26.2363C27.9159 25.6922 28.45 24.8691 28.45 23.8C28.45 22.8218 28.0092 22.0567 27.1628 21.5672C26.358 21.1017 25.2151 20.9 23.8 20.9H19.65V14.3543L24.6569 9.25014L25.4909 8.4H24.3H12.3V0.5H37.4V7.04513L31.0438 13.4992Z" stroke="url(#paint0_linear)"/>
</g>
<defs>
<filter id="filter0_dddii" x="0" y="-6" width="49.8" height="55.8" filterUnits="userSpaceOnUse" color-interpolation-filters="sRGB">
<feFlood flood-opacity="0" result="BackgroundImageFix"/>
<feColorMatrix in="SourceAlpha" type="matrix" values="0 0 0 0 0 0 0 0 0 0 0 0 0 0 0 0 0 0 127 0"/>
<feOffset dy="4"/>
<feGaussianBlur stdDeviation="5"/>
<feColorMatrix type="matrix" values="0 0 0 0 1 0 0 0 0 0.576923 0 0 0 0 0 0 0 0 0.654611 0"/>
<feBlend mode="normal" in2="BackgroundImageFix" result="effect1_dropShadow"/>
<feColorMatrix in="SourceAlpha" type="matrix" values="0 0 0 0 0 0 0 0 0 0 0 0 0 0 0 0 0 0 127 0"/>
<feOffset dy="2"/>
<feGaussianBlur stdDeviation="3"/>
<feColorMatrix type="matrix" values="0 0 0 0 0 0 0 0 0 0 0 0 0 0 0 0 0 0 0.5 0"/>
<feBlend mode="normal" in2="effect1_dropShadow" result="effect2_dropShadow"/>
<feColorMatrix in="SourceAlpha" type="matrix" values="0 0 0 0 0 0 0 0 0 0 0 0 0 0 0 0 0 0 127 0"/>
<feOffset dy="2"/>
<feColorMatrix type="matrix" values="0 0 0 0 0.600713 0 0 0 0 0.305411 0 0 0 0 0 0 0 0 1 0"/>
<feBlend mode="normal" in2="effect2_dropShadow" result="effect3_dropShadow"/>
<feBlend mode="normal" in="SourceGraphic" in2="effect3_dropShadow" result="shape"/>
<feColorMatrix in="SourceAlpha" type="matrix" values="0 0 0 0 0 0 0 0 0 0 0 0 0 0 0 0 0 0 127 0" result="hardAlpha"/>
<feOffset dy="3"/>
<feGaussianBlur stdDeviation="3"/>
<feComposite in2="hardAlpha" operator="arithmetic" k2="-1" k3="1"/>
<feColorMatrix type="matrix" values="0 0 0 0 0.983582 0 0 0 0 0.153441 0 0 0 0 0.153441 0 0 0 0.5 0"/>
<feBlend mode="normal" in2="shape" result="effect4_innerShadow"/>
<feColorMatrix in="SourceAlpha" type="matrix" values="0 0 0 0 0 0 0 0 0 0 0 0 0 0 0 0 0 0 127 0" result="hardAlpha"/>
<feOffset dy="1"/>
<feComposite in2="hardAlpha" operator="arithmetic" k2="-1" k3="1"/>
<feColorMatrix type="matrix" values="0 0 0 0 1 0 0 0 0 1 0 0 0 0 1 0 0 0 0.5 0"/>
<feBlend mode="normal" in2="effect4_innerShadow" result="effect5_innerShadow"/>
</filter>
<linearGradient id="paint0_linear" x1="9.82021" y1="-4.2696" x2="9.82021" y2="35.8" gradientUnits="userSpaceOnUse">
<stop stop-color="#FFDE00"/>
<stop offset="1" stop-color="#FF9400"/>
</linearGradient>
</defs>
</svg>
