<svg width="51" height="51" viewBox="0 0 51 51" fill="none" xmlns="http://www.w3.org/2000/svg">
<g filter="url(#filter0_dddii)">
<mask id="path-1-inside-1" fill="white">
<path fill-rule="evenodd" clip-rule="evenodd" d="M34 35.1C31.8333 36.1 29.4333 36.6 26.8 36.6C23.4333 36.6 20.4917 35.95 17.975 34.65C15.4583 33.35 13.5 31.4167 12.1 28.85C10.7 26.2833 10 23.1333 10 19.4C10 15.4 10.8083 11.9333 12.425 9C14.0417 6.06667 16.3083 3.83333 19.225 2.3C22.1417 0.766667 25.5333 0 29.4 0C31.5 0 33.5 0.241667 35.4 0.725C37.3 1.20833 38.9167 1.88333 40.25 2.75L36 11C34.2667 9.76667 32.15 9.15 29.65 9.15C27.6167 9.15 25.9417 9.65833 24.625 10.675C23.3083 11.6917 22.45 13.1667 22.05 15.1C23.8833 13.8 26.2 13.15 29 13.15C31.1333 13.15 33.1167 13.6167 34.95 14.55C36.7833 15.4833 38.25 16.8 39.35 18.5C40.45 20.2 41 22.15 41 24.35C41 26.7833 40.375 28.9333 39.125 30.8C37.875 32.6667 36.1667 34.1 34 35.1ZM23.4 27.5C24.0667 28.1333 24.9333 28.45 26 28.45C27.0667 28.45 27.9333 28.1333 28.6 27.5C29.2667 26.8667 29.6 26 29.6 24.9C29.6 23.8 29.2667 22.925 28.6 22.275C27.9333 21.625 27.0667 21.3 26 21.3C24.9333 21.3 24.0667 21.625 23.4 22.275C22.7333 22.925 22.4 23.8 22.4 24.9C22.4 26 22.7333 26.8667 23.4 27.5Z"/>
</mask>
<path fill-rule="evenodd" clip-rule="evenodd" d="M34 35.1C31.8333 36.1 29.4333 36.6 26.8 36.6C23.4333 36.6 20.4917 35.95 17.975 34.65C15.4583 33.35 13.5 31.4167 12.1 28.85C10.7 26.2833 10 23.1333 10 19.4C10 15.4 10.8083 11.9333 12.425 9C14.0417 6.06667 16.3083 3.83333 19.225 2.3C22.1417 0.766667 25.5333 0 29.4 0C31.5 0 33.5 0.241667 35.4 0.725C37.3 1.20833 38.9167 1.88333 40.25 2.75L36 11C34.2667 9.76667 32.15 9.15 29.65 9.15C27.6167 9.15 25.9417 9.65833 24.625 10.675C23.3083 11.6917 22.45 13.1667 22.05 15.1C23.8833 13.8 26.2 13.15 29 13.15C31.1333 13.15 33.1167 13.6167 34.95 14.55C36.7833 15.4833 38.25 16.8 39.35 18.5C40.45 20.2 41 22.15 41 24.35C41 26.7833 40.375 28.9333 39.125 30.8C37.875 32.6667 36.1667 34.1 34 35.1ZM23.4 27.5C24.0667 28.1333 24.9333 28.45 26 28.45C27.0667 28.45 27.9333 28.1333 28.6 27.5C29.2667 26.8667 29.6 26 29.6 24.9C29.6 23.8 29.2667 22.925 28.6 22.275C27.9333 21.625 27.0667 21.3 26 21.3C24.9333 21.3 24.0667 21.625 23.4 22.275C22.7333 22.925 22.4 23.8 22.4 24.9C22.4 26 22.7333 26.8667 23.4 27.5Z" fill="#FFBC00"/>
<path d="M12.1 28.85L11.2221 29.3289L12.1 28.85ZM12.425 9L13.3008 9.48268L12.425 9ZM35.4 0.725L35.6465 -0.244134L35.4 0.725ZM40.25 2.75L41.139 3.20796L41.553 2.40426L40.795 1.91156L40.25 2.75ZM36 11L35.4202 11.8148L36.3605 12.4838L36.889 11.458L36 11ZM22.05 15.1L21.0707 14.8974L20.556 17.3853L22.6284 15.9157L22.05 15.1ZM39.125 30.8L39.9559 31.3564L39.125 30.8ZM23.4 27.5L22.7112 28.225L22.7113 28.225L23.4 27.5ZM28.6 27.5L29.2887 28.225L28.6 27.5ZM28.6 22.275L27.9019 22.991L27.9019 22.991L28.6 22.275ZM26.8 37.6C29.5629 37.6 32.1079 37.0746 34.4191 36.008L33.5809 34.192C31.5587 35.1254 29.3038 35.6 26.8 35.6V37.6ZM17.5161 35.5385C20.199 36.9244 23.3036 37.6 26.8 37.6V35.6C23.5631 35.6 20.7843 34.9756 18.4339 33.7615L17.5161 35.5385ZM11.2221 29.3289C12.7145 32.0648 14.816 34.1437 17.5161 35.5385L18.4339 33.7615C16.1006 32.5563 14.2855 30.7685 12.9779 28.3711L11.2221 29.3289ZM9 19.4C9 23.2554 9.7228 26.5801 11.2221 29.3289L12.9779 28.3711C11.6772 25.9865 11 23.0113 11 19.4H9ZM11.5492 8.51732C9.8366 11.6247 9 15.2639 9 19.4H11C11 15.5361 11.7801 12.2419 13.3008 9.48268L11.5492 8.51732ZM18.7597 1.41486C15.6667 3.04086 13.2587 5.41555 11.5492 8.51732L13.3008 9.48268C14.8246 6.71779 16.9499 4.62581 19.6903 3.18514L18.7597 1.41486ZM29.4 -1C25.3993 -1 21.8428 -0.205997 18.7597 1.41486L19.6903 3.18514C22.4405 1.73933 25.6673 1 29.4 1V-1ZM35.6465 -0.244134C33.6605 -0.749365 31.5773 -1 29.4 -1V1C31.4227 1 33.3395 1.2327 35.1535 1.69413L35.6465 -0.244134ZM40.795 1.91156C39.3515 0.973286 37.6288 0.26012 35.6465 -0.244134L35.1535 1.69413C36.9712 2.15655 38.4818 2.79338 39.705 3.58844L40.795 1.91156ZM36.889 11.458L41.139 3.20796L39.361 2.29204L35.111 10.542L36.889 11.458ZM29.65 10.15C31.9796 10.15 33.8844 10.722 35.4202 11.8148L36.5798 10.1852C34.649 8.81137 32.3204 8.15 29.65 8.15V10.15ZM25.2362 11.4665C26.3416 10.6129 27.7874 10.15 29.65 10.15V8.15C27.4459 8.15 25.5417 8.70376 24.0138 9.88349L25.2362 11.4665ZM23.0293 15.3026C23.3903 13.5573 24.1427 12.3108 25.2362 11.4665L24.0138 9.88349C22.474 11.0725 21.5097 12.776 21.0707 14.8974L23.0293 15.3026ZM29 12.15C26.0442 12.15 23.5116 12.8377 21.4716 14.2843L22.6284 15.9157C24.2551 14.7623 26.3558 14.15 29 14.15V12.15ZM35.4037 13.6588C33.4245 12.6513 31.285 12.15 29 12.15V14.15C30.9817 14.15 32.8088 14.5821 34.4963 15.4412L35.4037 13.6588ZM40.1896 17.9567C38.9922 16.1063 37.3914 14.6708 35.4037 13.6588L34.4963 15.4412C36.1753 16.2959 37.5078 17.4937 38.5104 19.0433L40.1896 17.9567ZM42 24.35C42 21.9746 41.4033 19.8326 40.1896 17.9567L38.5104 19.0433C39.4967 20.5674 40 22.3254 40 24.35H42ZM39.9559 31.3564C41.3254 29.3114 42 26.9642 42 24.35H40C40 26.6024 39.4246 28.5553 38.2941 30.2436L39.9559 31.3564ZM34.4191 36.008C36.7419 34.9359 38.5971 33.3855 39.9559 31.3564L38.2941 30.2436C37.1529 31.9478 35.5914 33.2641 33.5809 34.192L34.4191 36.008ZM26 27.45C25.1457 27.45 24.5399 27.2036 24.0887 26.775L22.7113 28.225C23.5934 29.063 24.721 29.45 26 29.45V27.45ZM27.9112 26.775C27.4601 27.2036 26.8543 27.45 26 27.45V29.45C27.279 29.45 28.4066 29.063 29.2887 28.225L27.9112 26.775ZM28.6 24.9C28.6 25.784 28.3407 26.3671 27.9112 26.775L29.2887 28.225C30.1927 27.3663 30.6 26.216 30.6 24.9H28.6ZM27.9019 22.991C28.3407 23.4189 28.6 24.0168 28.6 24.9H30.6C30.6 23.5832 30.1926 22.4311 29.2981 21.559L27.9019 22.991ZM26 22.3C26.8469 22.3 27.4495 22.5499 27.9019 22.991L29.2981 21.559C28.4172 20.7001 27.2864 20.3 26 20.3V22.3ZM24.0981 22.991C24.5505 22.5499 25.1531 22.3 26 22.3V20.3C24.7136 20.3 23.5828 20.7001 22.7019 21.559L24.0981 22.991ZM23.4 24.9C23.4 24.0168 23.6593 23.4189 24.0981 22.991L22.7019 21.559C21.8074 22.4311 21.4 23.5832 21.4 24.9H23.4ZM24.0887 26.775C23.6593 26.3671 23.4 25.784 23.4 24.9H21.4C21.4 26.216 21.8073 27.3663 22.7112 28.225L24.0887 26.775Z" fill="url(#paint0_linear)" mask="url(#path-1-inside-1)"/>
</g>
<defs>
<filter id="filter0_dddii" x="0" y="-6" width="51" height="56.6" filterUnits="userSpaceOnUse" color-interpolation-filters="sRGB">
<feFlood flood-opacity="0" result="BackgroundImageFix"/>
<feColorMatrix in="SourceAlpha" type="matrix" values="0 0 0 0 0 0 0 0 0 0 0 0 0 0 0 0 0 0 127 0"/>
<feOffset dy="4"/>
<feGaussianBlur stdDeviation="5"/>
<feColorMatrix type="matrix" values="0 0 0 0 1 0 0 0 0 0.576923 0 0 0 0 0 0 0 0 0.654611 0"/>
<feBlend mode="normal" in2="BackgroundImageFix" result="effect1_dropShadow"/>
<feColorMatrix in="SourceAlpha" type="matrix" values="0 0 0 0 0 0 0 0 0 0 0 0 0 0 0 0 0 0 127 0"/>
<feOffset dy="2"/>
<feGaussianBlur stdDeviation="3"/>
<feColorMatrix type="matrix" values="0 0 0 0 0 0 0 0 0 0 0 0 0 0 0 0 0 0 0.5 0"/>
<feBlend mode="normal" in2="effect1_dropShadow" result="effect2_dropShadow"/>
<feColorMatrix in="SourceAlpha" type="matrix" values="0 0 0 0 0 0 0 0 0 0 0 0 0 0 0 0 0 0 127 0"/>
<feOffset dy="2"/>
<feColorMatrix type="matrix" values="0 0 0 0 0.728176 0 0 0 0 0.370214 0 0 0 0 0 0 0 0 1 0"/>
<feBlend mode="normal" in2="effect2_dropShadow" result="effect3_dropShadow"/>
<feBlend mode="normal" in="SourceGraphic" in2="effect3_dropShadow" result="shape"/>
<feColorMatrix in="SourceAlpha" type="matrix" values="0 0 0 0 0 0 0 0 0 0 0 0 0 0 0 0 0 0 127 0" result="hardAlpha"/>
<feOffset dy="3"/>
<feGaussianBlur stdDeviation="3"/>
<feComposite in2="hardAlpha" operator="arithmetic" k2="-1" k3="1"/>
<feColorMatrix type="matrix" values="0 0 0 0 0.983582 0 0 0 0 0.153441 0 0 0 0 0.153441 0 0 0 0.5 0"/>
<feBlend mode="normal" in2="shape" result="effect4_innerShadow"/>
<feColorMatrix in="SourceAlpha" type="matrix" values="0 0 0 0 0 0 0 0 0 0 0 0 0 0 0 0 0 0 127 0" result="hardAlpha"/>
<feOffset dy="1"/>
<feComposite in2="hardAlpha" operator="arithmetic" k2="-1" k3="1"/>
<feColorMatrix type="matrix" values="0 0 0 0 1 0 0 0 0 1 0 0 0 0 1 0 0 0 0.5 0"/>
<feBlend mode="normal" in2="effect4_innerShadow" result="effect5_innerShadow"/>
</filter>
<linearGradient id="paint0_linear" x1="9.81297" y1="-4.36501" x2="9.81297" y2="36.6" gradientUnits="userSpaceOnUse">
<stop stop-color="#FFDE00"/>
<stop offset="1" stop-color="#FF9400"/>
</linearGradient>
</defs>
</svg>
