<svg width="52" height="51" viewBox="0 0 52 51" fill="none" xmlns="http://www.w3.org/2000/svg">
<g filter="url(#filter0_dddii)">
<mask id="path-1-inside-1" fill="white">
<path fill-rule="evenodd" clip-rule="evenodd" d="M25.7 36.6C28.7667 36.6 31.4917 36.1417 33.875 35.225C36.2583 34.3083 38.1083 33 39.425 31.3C40.7417 29.6 41.4 27.6333 41.4 25.4C41.4 23.6667 40.9917 22.125 40.175 20.775C39.3583 19.425 38.2 18.2833 36.7 17.35C39 15.5167 40.15 13.2167 40.15 10.45C40.15 8.35 39.5417 6.51667 38.325 4.95C37.1083 3.38333 35.4083 2.16667 33.225 1.3C31.0417 0.433333 28.5333 0 25.7 0C22.8667 0 20.3583 0.433333 18.175 1.3C15.9917 2.16667 14.2917 3.38333 13.075 4.95C11.8583 6.51667 11.25 8.35 11.25 10.45C11.25 13.2167 12.4 15.5167 14.7 17.35C13.2 18.2833 12.0417 19.425 11.225 20.775C10.4083 22.125 10 23.6667 10 25.4C10 27.6333 10.6583 29.6 11.975 31.3C13.2917 33 15.1417 34.3083 17.525 35.225C19.9083 36.1417 22.6333 36.6 25.7 36.6ZM25.7 13.95C24.8667 13.95 24.1917 13.6833 23.675 13.15C23.1583 12.6167 22.9 11.8833 22.9 10.95C22.9 10.0167 23.1583 9.28333 23.675 8.75C24.1917 8.21667 24.8667 7.95 25.7 7.95C26.5333 7.95 27.2083 8.21667 27.725 8.75C28.2417 9.28333 28.5 10.0167 28.5 10.95C28.5 11.8833 28.2417 12.6167 27.725 13.15C27.2083 13.6833 26.5333 13.95 25.7 13.95ZM22.925 27.65C23.6417 28.3167 24.5667 28.65 25.7 28.65C26.8333 28.65 27.7583 28.3167 28.475 27.65C29.1917 26.9833 29.55 26.1 29.55 25C29.55 23.9 29.1917 23.0167 28.475 22.35C27.7583 21.6833 26.8333 21.35 25.7 21.35C24.5667 21.35 23.6417 21.6833 22.925 22.35C22.2083 23.0167 21.85 23.9 21.85 25C21.85 26.1 22.2083 26.9833 22.925 27.65Z"/>
</mask>
<path fill-rule="evenodd" clip-rule="evenodd" d="M25.7 36.6C28.7667 36.6 31.4917 36.1417 33.875 35.225C36.2583 34.3083 38.1083 33 39.425 31.3C40.7417 29.6 41.4 27.6333 41.4 25.4C41.4 23.6667 40.9917 22.125 40.175 20.775C39.3583 19.425 38.2 18.2833 36.7 17.35C39 15.5167 40.15 13.2167 40.15 10.45C40.15 8.35 39.5417 6.51667 38.325 4.95C37.1083 3.38333 35.4083 2.16667 33.225 1.3C31.0417 0.433333 28.5333 0 25.7 0C22.8667 0 20.3583 0.433333 18.175 1.3C15.9917 2.16667 14.2917 3.38333 13.075 4.95C11.8583 6.51667 11.25 8.35 11.25 10.45C11.25 13.2167 12.4 15.5167 14.7 17.35C13.2 18.2833 12.0417 19.425 11.225 20.775C10.4083 22.125 10 23.6667 10 25.4C10 27.6333 10.6583 29.6 11.975 31.3C13.2917 33 15.1417 34.3083 17.525 35.225C19.9083 36.1417 22.6333 36.6 25.7 36.6ZM25.7 13.95C24.8667 13.95 24.1917 13.6833 23.675 13.15C23.1583 12.6167 22.9 11.8833 22.9 10.95C22.9 10.0167 23.1583 9.28333 23.675 8.75C24.1917 8.21667 24.8667 7.95 25.7 7.95C26.5333 7.95 27.2083 8.21667 27.725 8.75C28.2417 9.28333 28.5 10.0167 28.5 10.95C28.5 11.8833 28.2417 12.6167 27.725 13.15C27.2083 13.6833 26.5333 13.95 25.7 13.95ZM22.925 27.65C23.6417 28.3167 24.5667 28.65 25.7 28.65C26.8333 28.65 27.7583 28.3167 28.475 27.65C29.1917 26.9833 29.55 26.1 29.55 25C29.55 23.9 29.1917 23.0167 28.475 22.35C27.7583 21.6833 26.8333 21.35 25.7 21.35C24.5667 21.35 23.6417 21.6833 22.925 22.35C22.2083 23.0167 21.85 23.9 21.85 25C21.85 26.1 22.2083 26.9833 22.925 27.65Z" fill="#FFBC00"/>
<path d="M36.7 17.35L36.0767 16.568L34.9692 17.4508L36.1717 18.1991L36.7 17.35ZM33.225 1.3L32.8561 2.22945L33.225 1.3ZM18.175 1.3L18.5439 2.22945L18.175 1.3ZM13.075 4.95L12.2852 4.33664L13.075 4.95ZM14.7 17.35L15.2283 18.1991L16.4308 17.4508L15.3233 16.568L14.7 17.35ZM11.225 20.775L10.3694 20.2574H10.3694L11.225 20.775ZM23.675 13.15L22.9568 13.8458H22.9568L23.675 13.15ZM23.675 8.75L22.9568 8.0542L23.675 8.75ZM27.725 8.75L27.0068 9.4458L27.0068 9.4458L27.725 8.75ZM27.725 13.15L27.0068 12.4542L27.0068 12.4542L27.725 13.15ZM22.925 27.65L22.2439 28.3822L22.2439 28.3822L22.925 27.65ZM28.475 27.65L29.1561 28.3822H29.1561L28.475 27.65ZM22.925 22.35L22.2439 21.6178L22.925 22.35ZM33.516 34.2917C31.2677 35.1564 28.668 35.6 25.7 35.6V37.6C28.8654 37.6 31.7156 37.1269 34.234 36.1583L33.516 34.2917ZM38.6344 30.6877C37.449 32.2182 35.7611 33.4282 33.516 34.2917L34.234 36.1583C36.7556 35.1885 38.7677 33.7818 40.2156 31.9123L38.6344 30.6877ZM40.4 25.4C40.4 27.4209 39.8098 29.1701 38.6344 30.6877L40.2156 31.9123C41.6735 30.0299 42.4 27.8458 42.4 25.4H40.4ZM39.3194 21.2926C40.0324 22.4713 40.4 23.8306 40.4 25.4H42.4C42.4 23.5028 41.9509 21.7787 41.0306 20.2574L39.3194 21.2926ZM36.1717 18.1991C37.5542 19.0593 38.5935 20.0927 39.3194 21.2926L41.0306 20.2574C40.1231 18.7573 38.8458 17.5074 37.2283 16.5009L36.1717 18.1991ZM39.15 10.45C39.15 12.8908 38.156 14.9106 36.0767 16.568L37.3233 18.132C39.844 16.1227 41.15 13.5425 41.15 10.45H39.15ZM37.5352 5.56336C38.6073 6.94387 39.15 8.55816 39.15 10.45H41.15C41.15 8.14184 40.476 6.08946 39.1148 4.33664L37.5352 5.56336ZM32.8561 2.22945C34.9042 3.04245 36.4468 4.1618 37.5352 5.56336L39.1148 4.33664C37.7699 2.60487 35.9125 1.29088 33.5939 0.370548L32.8561 2.22945ZM25.7 1C28.4324 1 30.8116 1.41792 32.8561 2.22945L33.5939 0.370548C31.2717 -0.551258 28.6343 -1 25.7 -1V1ZM18.5439 2.22945C20.5884 1.41792 22.9676 1 25.7 1V-1C22.7657 -1 20.1283 -0.551258 17.8061 0.370548L18.5439 2.22945ZM13.8648 5.56336C14.9533 4.1618 16.4958 3.04245 18.5439 2.22945L17.8061 0.370548C15.4875 1.29088 13.6301 2.60487 12.2852 4.33664L13.8648 5.56336ZM12.25 10.45C12.25 8.55816 12.7927 6.94387 13.8648 5.56336L12.2852 4.33664C10.924 6.08946 10.25 8.14184 10.25 10.45H12.25ZM15.3233 16.568C13.244 14.9106 12.25 12.8908 12.25 10.45H10.25C10.25 13.5425 11.556 16.1227 14.0767 18.132L15.3233 16.568ZM12.0806 21.2926C12.8065 20.0927 13.8458 19.0593 15.2283 18.1991L14.1717 16.5009C12.5542 17.5074 11.2769 18.7573 10.3694 20.2574L12.0806 21.2926ZM11 25.4C11 23.8306 11.3676 22.4713 12.0806 21.2926L10.3694 20.2574C9.4491 21.7787 9 23.5028 9 25.4H11ZM12.7656 30.6877C11.5902 29.1701 11 27.4209 11 25.4H9C9 27.8458 9.72645 30.0299 11.1844 31.9123L12.7656 30.6877ZM17.884 34.2917C15.6389 33.4282 13.951 32.2182 12.7656 30.6877L11.1844 31.9123C12.6323 33.7818 14.6444 35.1885 17.166 36.1583L17.884 34.2917ZM25.7 35.6C22.732 35.6 20.1323 35.1564 17.884 34.2917L17.166 36.1583C19.6844 37.1269 22.5346 37.6 25.7 37.6V35.6ZM22.9568 13.8458C23.6857 14.5982 24.6323 14.95 25.7 14.95V12.95C25.1011 12.95 24.6977 12.7685 24.3932 12.4542L22.9568 13.8458ZM21.9 10.95C21.9 12.073 22.2159 13.081 22.9568 13.8458L24.3932 12.4542C24.1008 12.1523 23.9 11.6936 23.9 10.95H21.9ZM22.9568 8.0542C22.2159 8.81895 21.9 9.82696 21.9 10.95H23.9C23.9 10.2064 24.1008 9.74771 24.3932 9.4458L22.9568 8.0542ZM25.7 6.95C24.6323 6.95 23.6857 7.30179 22.9568 8.0542L24.3932 9.4458C24.6977 9.13154 25.1011 8.95 25.7 8.95V6.95ZM28.4432 8.0542C27.7143 7.30179 26.7677 6.95 25.7 6.95V8.95C26.2989 8.95 26.7023 9.13154 27.0068 9.4458L28.4432 8.0542ZM29.5 10.95C29.5 9.82696 29.1841 8.81895 28.4432 8.0542L27.0068 9.4458C27.2992 9.74772 27.5 10.2064 27.5 10.95H29.5ZM28.4432 13.8458C29.1841 13.081 29.5 12.073 29.5 10.95H27.5C27.5 11.6936 27.2992 12.1523 27.0068 12.4542L28.4432 13.8458ZM25.7 14.95C26.7677 14.95 27.7143 14.5982 28.4432 13.8458L27.0068 12.4542C26.7023 12.7685 26.2989 12.95 25.7 12.95V14.95ZM25.7 27.65C24.7767 27.65 24.1087 27.3853 23.6061 26.9178L22.2439 28.3822C23.1747 29.248 24.3567 29.65 25.7 29.65V27.65ZM27.7939 26.9178C27.2913 27.3853 26.6233 27.65 25.7 27.65V29.65C27.0433 29.65 28.2253 29.248 29.1561 28.3822L27.7939 26.9178ZM28.55 25C28.55 25.8602 28.2809 26.4647 27.7939 26.9178L29.1561 28.3822C30.1024 27.5019 30.55 26.3398 30.55 25H28.55ZM27.7939 23.0822C28.2809 23.5353 28.55 24.1398 28.55 25H30.55C30.55 23.6602 30.1024 22.4981 29.1561 21.6178L27.7939 23.0822ZM25.7 22.35C26.6233 22.35 27.2913 22.6147 27.7939 23.0822L29.1561 21.6178C28.2253 20.752 27.0433 20.35 25.7 20.35V22.35ZM23.6061 23.0822C24.1087 22.6147 24.7767 22.35 25.7 22.35V20.35C24.3567 20.35 23.1747 20.752 22.2439 21.6178L23.6061 23.0822ZM22.85 25C22.85 24.1398 23.1191 23.5353 23.6061 23.0822L22.2439 21.6178C21.2976 22.4981 20.85 23.6602 20.85 25H22.85ZM23.6061 26.9178C23.1191 26.4647 22.85 25.8602 22.85 25H20.85C20.85 26.3398 21.2976 27.5019 22.2439 28.3822L23.6061 26.9178Z" fill="url(#paint0_linear)" mask="url(#path-1-inside-1)"/>
</g>
<defs>
<filter id="filter0_dddii" x="0" y="-6" width="51.4" height="56.6" filterUnits="userSpaceOnUse" color-interpolation-filters="sRGB">
<feFlood flood-opacity="0" result="BackgroundImageFix"/>
<feColorMatrix in="SourceAlpha" type="matrix" values="0 0 0 0 0 0 0 0 0 0 0 0 0 0 0 0 0 0 127 0"/>
<feOffset dy="4"/>
<feGaussianBlur stdDeviation="5"/>
<feColorMatrix type="matrix" values="0 0 0 0 1 0 0 0 0 0.576923 0 0 0 0 0 0 0 0 0.654611 0"/>
<feBlend mode="normal" in2="BackgroundImageFix" result="effect1_dropShadow"/>
<feColorMatrix in="SourceAlpha" type="matrix" values="0 0 0 0 0 0 0 0 0 0 0 0 0 0 0 0 0 0 127 0"/>
<feOffset dy="2"/>
<feGaussianBlur stdDeviation="3"/>
<feColorMatrix type="matrix" values="0 0 0 0 0 0 0 0 0 0 0 0 0 0 0 0 0 0 0.5 0"/>
<feBlend mode="normal" in2="effect1_dropShadow" result="effect2_dropShadow"/>
<feColorMatrix in="SourceAlpha" type="matrix" values="0 0 0 0 0 0 0 0 0 0 0 0 0 0 0 0 0 0 127 0"/>
<feOffset dy="2"/>
<feColorMatrix type="matrix" values="0 0 0 0 0.728176 0 0 0 0 0.370214 0 0 0 0 0 0 0 0 1 0"/>
<feBlend mode="normal" in2="effect2_dropShadow" result="effect3_dropShadow"/>
<feBlend mode="normal" in="SourceGraphic" in2="effect3_dropShadow" result="shape"/>
<feColorMatrix in="SourceAlpha" type="matrix" values="0 0 0 0 0 0 0 0 0 0 0 0 0 0 0 0 0 0 127 0" result="hardAlpha"/>
<feOffset dy="3"/>
<feGaussianBlur stdDeviation="3"/>
<feComposite in2="hardAlpha" operator="arithmetic" k2="-1" k3="1"/>
<feColorMatrix type="matrix" values="0 0 0 0 0.983582 0 0 0 0 0.153441 0 0 0 0 0.153441 0 0 0 0.5 0"/>
<feBlend mode="normal" in2="shape" result="effect4_innerShadow"/>
<feColorMatrix in="SourceAlpha" type="matrix" values="0 0 0 0 0 0 0 0 0 0 0 0 0 0 0 0 0 0 127 0" result="hardAlpha"/>
<feOffset dy="1"/>
<feComposite in2="hardAlpha" operator="arithmetic" k2="-1" k3="1"/>
<feColorMatrix type="matrix" values="0 0 0 0 1 0 0 0 0 1 0 0 0 0 1 0 0 0 0.5 0"/>
<feBlend mode="normal" in2="effect4_innerShadow" result="effect5_innerShadow"/>
</filter>
<linearGradient id="paint0_linear" x1="9.81056" y1="-4.36501" x2="9.81056" y2="36.6" gradientUnits="userSpaceOnUse">
<stop stop-color="#FFDE00"/>
<stop offset="1" stop-color="#FF9400"/>
</linearGradient>
</defs>
</svg>
