<svg width="51" height="51" viewBox="0 0 51 51" fill="none" xmlns="http://www.w3.org/2000/svg">
<g filter="url(#filter0_dddii)">
<mask id="path-1-inside-1" fill="white">
<path fill-rule="evenodd" clip-rule="evenodd" d="M31.775 34.3C28.8583 35.8333 25.4667 36.6 21.6 36.6C19.5 36.6 17.5 36.3583 15.6 35.875C13.7 35.3917 12.0833 34.7167 10.75 33.85L15 25.6C16.7333 26.8333 18.85 27.45 21.35 27.45C23.3833 27.45 25.0583 26.9417 26.375 25.925C27.6917 24.9083 28.55 23.4333 28.95 21.5C27.1167 22.8 24.8 23.45 22 23.45C19.8667 23.45 17.8833 22.9833 16.05 22.05C14.2167 21.1167 12.75 19.8 11.65 18.1C10.55 16.4 10 14.45 10 12.25C10 9.81667 10.625 7.66667 11.875 5.8C13.125 3.93333 14.8333 2.5 17 1.5C19.1667 0.5 21.5667 0 24.2 0C27.5667 0 30.5083 0.65 33.025 1.95C35.5417 3.25 37.5 5.18333 38.9 7.75C40.3 10.3167 41 13.4667 41 17.2C41 21.2 40.1917 24.6667 38.575 27.6C36.9583 30.5333 34.6917 32.7667 31.775 34.3ZM22.4 14.325C23.0667 14.975 23.9333 15.3 25 15.3C26.0667 15.3 26.9333 14.975 27.6 14.325C28.2667 13.675 28.6 12.8 28.6 11.7C28.6 10.6 28.2667 9.73333 27.6 9.1C26.9333 8.46667 26.0667 8.15 25 8.15C23.9333 8.15 23.0667 8.46667 22.4 9.1C21.7333 9.73333 21.4 10.6 21.4 11.7C21.4 12.8 21.7333 13.675 22.4 14.325Z"/>
</mask>
<path fill-rule="evenodd" clip-rule="evenodd" d="M31.775 34.3C28.8583 35.8333 25.4667 36.6 21.6 36.6C19.5 36.6 17.5 36.3583 15.6 35.875C13.7 35.3917 12.0833 34.7167 10.75 33.85L15 25.6C16.7333 26.8333 18.85 27.45 21.35 27.45C23.3833 27.45 25.0583 26.9417 26.375 25.925C27.6917 24.9083 28.55 23.4333 28.95 21.5C27.1167 22.8 24.8 23.45 22 23.45C19.8667 23.45 17.8833 22.9833 16.05 22.05C14.2167 21.1167 12.75 19.8 11.65 18.1C10.55 16.4 10 14.45 10 12.25C10 9.81667 10.625 7.66667 11.875 5.8C13.125 3.93333 14.8333 2.5 17 1.5C19.1667 0.5 21.5667 0 24.2 0C27.5667 0 30.5083 0.65 33.025 1.95C35.5417 3.25 37.5 5.18333 38.9 7.75C40.3 10.3167 41 13.4667 41 17.2C41 21.2 40.1917 24.6667 38.575 27.6C36.9583 30.5333 34.6917 32.7667 31.775 34.3ZM22.4 14.325C23.0667 14.975 23.9333 15.3 25 15.3C26.0667 15.3 26.9333 14.975 27.6 14.325C28.2667 13.675 28.6 12.8 28.6 11.7C28.6 10.6 28.2667 9.73333 27.6 9.1C26.9333 8.46667 26.0667 8.15 25 8.15C23.9333 8.15 23.0667 8.46667 22.4 9.1C21.7333 9.73333 21.4 10.6 21.4 11.7C21.4 12.8 21.7333 13.675 22.4 14.325Z" fill="#FFBC00"/>
<path d="M10.75 33.85L9.86103 33.392L9.447 34.1957L10.205 34.6884L10.75 33.85ZM15 25.6L15.5798 24.7852L14.6395 24.1162L14.111 25.142L15 25.6ZM26.375 25.925L25.7638 25.1335L26.375 25.925ZM28.95 21.5L29.9293 21.7026L30.444 19.2147L28.3716 20.6843L28.95 21.5ZM27.6 14.325L26.9019 13.609L26.9019 13.609L27.6 14.325ZM27.6 9.1L26.9112 9.825V9.825L27.6 9.1ZM21.6 37.6C25.6007 37.6 29.1572 36.806 32.2403 35.1851L31.3097 33.4149C28.5595 34.8607 25.3327 35.6 21.6 35.6V37.6ZM15.3535 36.8441C17.3395 37.3494 19.4227 37.6 21.6 37.6V35.6C19.5773 35.6 17.6605 35.3673 15.8465 34.9059L15.3535 36.8441ZM10.205 34.6884C11.6485 35.6267 13.3712 36.3399 15.3535 36.8441L15.8465 34.9059C14.0288 34.4435 12.5182 33.8066 11.295 33.0116L10.205 34.6884ZM14.111 25.142L9.86103 33.392L11.639 34.308L15.889 26.058L14.111 25.142ZM21.35 26.45C19.0204 26.45 17.1156 25.878 15.5798 24.7852L14.4202 26.4148C16.351 27.7886 18.6796 28.45 21.35 28.45V26.45ZM25.7638 25.1335C24.6584 25.9871 23.2126 26.45 21.35 26.45V28.45C23.5541 28.45 25.4583 27.8962 26.9862 26.7165L25.7638 25.1335ZM27.9707 21.2974C27.6097 23.0427 26.8573 24.2892 25.7638 25.1335L26.9862 26.7165C28.526 25.5275 29.4904 23.824 29.9293 21.7026L27.9707 21.2974ZM22 24.45C24.9558 24.45 27.4884 23.7623 29.5284 22.3157L28.3716 20.6843C26.7449 21.8377 24.6442 22.45 22 22.45V24.45ZM15.5963 22.9412C17.5755 23.9487 19.715 24.45 22 24.45V22.45C20.0183 22.45 18.1912 22.0179 16.5037 21.1588L15.5963 22.9412ZM10.8104 18.6433C12.0078 20.4937 13.6086 21.9292 15.5963 22.9412L16.5037 21.1588C14.8247 20.3041 13.4922 19.1063 12.4896 17.5567L10.8104 18.6433ZM9 12.25C9 14.6254 9.59666 16.7674 10.8104 18.6433L12.4896 17.5567C11.5033 16.0326 11 14.2746 11 12.25H9ZM11.0441 5.24359C9.67464 7.28864 9 9.63578 9 12.25H11C11 9.99755 11.5754 8.04469 12.7059 6.35641L11.0441 5.24359ZM16.5809 0.592041C14.2581 1.66412 12.4029 3.21448 11.0441 5.24359L12.7059 6.35641C13.8471 4.65219 15.4086 3.33588 17.4191 2.40796L16.5809 0.592041ZM24.2 -1C21.4371 -1 18.8921 -0.474628 16.5809 0.592041L17.4191 2.40796C19.4413 1.47463 21.6962 1 24.2 1V-1ZM33.4839 1.06153C30.801 -0.324369 27.6964 -1 24.2 -1V1C27.4369 1 30.2157 1.62437 32.5661 2.83847L33.4839 1.06153ZM39.7779 7.27115C38.2855 4.53516 36.184 2.45626 33.4839 1.06153L32.5661 2.83847C34.8993 4.04374 36.7145 5.83151 38.0221 8.22885L39.7779 7.27115ZM42 17.2C42 13.3446 41.2772 10.0199 39.7779 7.27115L38.0221 8.22885C39.3228 10.6135 40 13.5887 40 17.2H42ZM39.4508 28.0827C41.1634 24.9753 42 21.3361 42 17.2H40C40 21.0639 39.2199 24.3581 37.6992 27.1173L39.4508 28.0827ZM32.2403 35.1851C35.3333 33.5591 37.7413 31.1845 39.4508 28.0827L37.6992 27.1173C36.1754 29.8822 34.0501 31.9742 31.3097 33.4149L32.2403 35.1851ZM25 14.3C24.1531 14.3 23.5505 14.0501 23.0981 13.609L21.7019 15.041C22.5828 15.8999 23.7136 16.3 25 16.3V14.3ZM26.9019 13.609C26.4495 14.0501 25.8469 14.3 25 14.3V16.3C26.2864 16.3 27.4172 15.8999 28.2981 15.041L26.9019 13.609ZM27.6 11.7C27.6 12.5832 27.3407 13.1811 26.9019 13.609L28.2981 15.041C29.1926 14.1689 29.6 13.0168 29.6 11.7H27.6ZM26.9112 9.825C27.3407 10.2329 27.6 10.816 27.6 11.7H29.6C29.6 10.384 29.1927 9.23373 28.2887 8.375L26.9112 9.825ZM25 9.15C25.8543 9.15 26.4601 9.39637 26.9112 9.825L28.2887 8.375C27.4066 7.53696 26.279 7.15 25 7.15V9.15ZM23.0887 9.825C23.5399 9.39637 24.1457 9.15 25 9.15V7.15C23.721 7.15 22.5934 7.53696 21.7113 8.375L23.0887 9.825ZM22.4 11.7C22.4 10.816 22.6593 10.2329 23.0887 9.825L21.7113 8.375C20.8073 9.23373 20.4 10.384 20.4 11.7H22.4ZM23.0981 13.609C22.6593 13.1811 22.4 12.5832 22.4 11.7H20.4C20.4 13.0168 20.8074 14.1689 21.7019 15.041L23.0981 13.609Z" fill="url(#paint0_linear)" mask="url(#path-1-inside-1)"/>
</g>
<defs>
<filter id="filter0_dddii" x="0" y="-6" width="51" height="56.6" filterUnits="userSpaceOnUse" color-interpolation-filters="sRGB">
<feFlood flood-opacity="0" result="BackgroundImageFix"/>
<feColorMatrix in="SourceAlpha" type="matrix" values="0 0 0 0 0 0 0 0 0 0 0 0 0 0 0 0 0 0 127 0"/>
<feOffset dy="4"/>
<feGaussianBlur stdDeviation="5"/>
<feColorMatrix type="matrix" values="0 0 0 0 1 0 0 0 0 0.576923 0 0 0 0 0 0 0 0 0.654611 0"/>
<feBlend mode="normal" in2="BackgroundImageFix" result="effect1_dropShadow"/>
<feColorMatrix in="SourceAlpha" type="matrix" values="0 0 0 0 0 0 0 0 0 0 0 0 0 0 0 0 0 0 127 0"/>
<feOffset dy="2"/>
<feGaussianBlur stdDeviation="3"/>
<feColorMatrix type="matrix" values="0 0 0 0 0 0 0 0 0 0 0 0 0 0 0 0 0 0 0.5 0"/>
<feBlend mode="normal" in2="effect1_dropShadow" result="effect2_dropShadow"/>
<feColorMatrix in="SourceAlpha" type="matrix" values="0 0 0 0 0 0 0 0 0 0 0 0 0 0 0 0 0 0 127 0"/>
<feOffset dy="2"/>
<feColorMatrix type="matrix" values="0 0 0 0 0.728176 0 0 0 0 0.370214 0 0 0 0 0 0 0 0 1 0"/>
<feBlend mode="normal" in2="effect2_dropShadow" result="effect3_dropShadow"/>
<feBlend mode="normal" in="SourceGraphic" in2="effect3_dropShadow" result="shape"/>
<feColorMatrix in="SourceAlpha" type="matrix" values="0 0 0 0 0 0 0 0 0 0 0 0 0 0 0 0 0 0 127 0" result="hardAlpha"/>
<feOffset dy="3"/>
<feGaussianBlur stdDeviation="3"/>
<feComposite in2="hardAlpha" operator="arithmetic" k2="-1" k3="1"/>
<feColorMatrix type="matrix" values="0 0 0 0 0.983582 0 0 0 0 0.153441 0 0 0 0 0.153441 0 0 0 0.5 0"/>
<feBlend mode="normal" in2="shape" result="effect4_innerShadow"/>
<feColorMatrix in="SourceAlpha" type="matrix" values="0 0 0 0 0 0 0 0 0 0 0 0 0 0 0 0 0 0 127 0" result="hardAlpha"/>
<feOffset dy="1"/>
<feComposite in2="hardAlpha" operator="arithmetic" k2="-1" k3="1"/>
<feColorMatrix type="matrix" values="0 0 0 0 1 0 0 0 0 1 0 0 0 0 1 0 0 0 0.5 0"/>
<feBlend mode="normal" in2="effect4_innerShadow" result="effect5_innerShadow"/>
</filter>
<linearGradient id="paint0_linear" x1="9.81297" y1="-4.36501" x2="9.81297" y2="36.6" gradientUnits="userSpaceOnUse">
<stop stop-color="#FFDE00"/>
<stop offset="1" stop-color="#FF9400"/>
</linearGradient>
</defs>
</svg>
