<svg width="45" height="54" viewBox="0 0 45 54" fill="none" xmlns="http://www.w3.org/2000/svg">
<path d="M10.1251 25.6079C9.75745 25.6079 9.39475 25.5399 9.06267 25.3979C7.55759 24.7549 7.4683 23.1 7.49973 22.4183C7.5195 21.9886 7.88271 21.6567 8.31351 21.6763C8.74308 21.6962 9.07526 22.0604 9.0555 22.4901C9.03041 23.032 9.11755 23.7279 9.67471 23.9659C10.1456 24.1671 10.8475 23.9969 11.239 23.5863C11.5453 23.2648 11.5916 22.8774 11.3767 22.4344C10.6274 20.8907 9.07127 20.2587 7.26944 19.527C4.05531 18.222 0.0556641 16.5978 0.0556641 8.80503V5.54974C0.0556641 4.92213 0.3004 4.33241 0.744714 3.88922C1.18913 3.44603 1.77813 3.2016 2.40697 3.20437C4.15074 3.20877 5.78269 4.06842 6.77269 5.50397L7.37819 6.38215C7.71979 6.87746 8.28309 7.17329 8.8848 7.17329H12.5316C12.9616 7.17329 13.3102 7.52186 13.3102 7.95194C13.3102 8.38192 12.9616 8.73059 12.5316 8.73059H8.8848C7.77099 8.73059 6.72846 8.18316 6.09614 7.26617L5.49065 6.38798C4.79054 5.37279 3.63628 4.76474 2.40318 4.76167C2.40247 4.76167 2.40175 4.76167 2.40114 4.76167C2.19101 4.76167 1.99348 4.84338 1.84459 4.99186C1.69529 5.14075 1.61307 5.339 1.61307 5.54984V8.80514C1.61307 11.8524 2.25563 14.05 3.5774 15.5237C4.73913 16.819 6.32326 17.4622 7.85527 18.0843C9.77844 18.8653 11.7673 19.6728 12.7775 21.7545C13.2758 22.7812 13.122 23.8677 12.3662 24.6608C11.7844 25.271 10.9427 25.6079 10.1251 25.6079Z" fill="#FFB125"/>
<path d="M34.1112 25.6079C33.2936 25.6079 32.4519 25.271 31.8702 24.6607C31.1144 23.8676 30.9606 22.7812 31.4589 21.7546C32.4691 19.6729 34.4579 18.8652 36.3811 18.0842C37.9131 17.4621 39.4974 16.8188 40.659 15.5236C41.9808 14.0499 42.6233 11.8523 42.6233 8.80505V5.54976C42.6233 5.33892 42.5411 5.14077 42.3918 4.99178C42.2425 4.84279 42.0415 4.76005 41.8333 4.76158C40.6001 4.76466 39.4458 5.3726 38.7458 6.388L38.1405 7.26598C37.5081 8.18307 36.4656 8.73051 35.3517 8.73051H31.7049C31.2748 8.73051 30.9263 8.38194 30.9263 7.95186C30.9263 7.52178 31.2748 7.17321 31.7049 7.17321H35.3517C35.9534 7.17321 36.5167 6.87737 36.8584 6.38196L37.4637 5.50398C38.4537 4.06834 40.0857 3.20869 41.8295 3.20428C41.8316 3.20428 41.8336 3.20428 41.8356 3.20428C42.4609 3.20428 43.0488 3.44738 43.4917 3.88914C43.936 4.33232 44.1807 4.92204 44.1807 5.54965V8.80495C44.1807 16.5977 40.1811 18.222 36.9671 19.5269C35.1652 20.2587 33.609 20.8906 32.8598 22.4344C32.6448 22.8773 32.6911 23.2648 32.9975 23.5862C33.3889 23.9968 34.0908 24.167 34.5618 23.9658C35.1189 23.7278 35.206 23.0319 35.181 22.49C35.1612 22.0604 35.4934 21.6962 35.923 21.6762C36.3536 21.6573 36.7169 21.9886 36.7368 22.4182C36.7682 23.0999 36.6789 24.7548 35.1738 25.3978C34.8415 25.5399 34.4787 25.6079 34.1112 25.6079Z" fill="#FFB125"/>
<rect x="20.3999" y="29.8403" width="3.43583" height="15.6037" fill="#FED130"/>
<path d="M9.48584 1.73566V11.8701C9.48584 19.0568 12.9015 25.8158 18.6876 30.0785L22.1184 32.606L25.5492 30.0784C31.3353 25.8157 34.751 19.0567 34.751 11.87V1.73566H9.48584Z" fill="#FED130"/>
<path d="M29.9742 1.7356V11.87C29.9742 19.0568 26.5585 25.8158 20.7724 30.0785L19.73 30.8465L22.1183 32.606L25.5491 30.0785C31.3352 25.8158 34.7508 19.0568 34.7508 11.87V1.7356H29.9742Z" fill="#F7BC14"/>
<path d="M35.6791 3.47126H8.55706C8.162 3.47126 7.8418 3.15105 7.8418 2.75599V0.715264C7.8418 0.320205 8.162 0 8.55706 0H35.679C36.0741 0 36.3943 0.320205 36.3943 0.715264V2.75599C36.3944 3.15105 36.0742 3.47126 35.6791 3.47126Z" fill="#FFB125"/>
<path d="M35.6795 0H31.6445V3.47126H35.6795C36.0746 3.47126 36.3948 3.15105 36.3948 2.75599V0.715264C36.3948 0.320205 36.0745 0 35.6795 0Z" fill="#FF901D"/>
<path d="M22.2602 9.42989L24.0553 13.067C24.0783 13.1136 24.1228 13.146 24.1743 13.1535L28.1881 13.7367C28.3178 13.7556 28.3695 13.9149 28.2757 14.0062L25.3712 16.8374C25.334 16.8738 25.317 16.926 25.3258 16.9773L26.0114 20.9749C26.0335 21.104 25.8981 21.2024 25.7822 21.1415L22.1921 19.254C22.146 19.2299 22.091 19.2299 22.0451 19.254L18.455 21.1415C18.3391 21.2024 18.2036 21.104 18.2258 20.9749L18.9114 16.9773C18.9202 16.926 18.9032 16.8738 18.866 16.8374L15.9615 14.0062C15.8677 13.9148 15.9194 13.7556 16.049 13.7367L20.0629 13.1535C20.1144 13.146 20.1589 13.1136 20.1819 13.067L21.977 9.42989C22.0347 9.31243 22.2023 9.31243 22.2602 9.42989Z" fill="white"/>
<path d="M24.0672 33.817H20.169C19.4382 33.817 18.8457 33.2245 18.8457 32.4936V31.9219C18.8457 31.1911 19.4382 30.5986 20.169 30.5986H24.0672C24.798 30.5986 25.3905 31.1911 25.3905 31.9219V32.4936C25.3905 33.2245 24.798 33.817 24.0672 33.817Z" fill="#FFB125"/>
<path d="M28.8212 47.7598H15.415V44.9079C15.415 43.9251 16.2118 43.1283 17.1946 43.1283H27.0417C28.0246 43.1283 28.8213 43.9251 28.8213 44.9079V47.7598H28.8212Z" fill="#FFB125"/>
<path d="M27.0418 43.1283H24.0879V47.7597H28.8214V44.9078C28.8214 43.9251 28.0248 43.1283 27.0418 43.1283Z" fill="#FF901D"/>
<path d="M32.5624 52.4288H11.6744C11.0499 52.4288 10.5806 51.8589 10.7004 51.2459L11.4485 47.4171C11.5396 46.9512 11.9478 46.615 12.4226 46.615H31.8141C32.2888 46.615 32.697 46.9512 32.7881 47.4171L33.5362 51.2459C33.6561 51.8589 33.1868 52.4288 32.5624 52.4288Z" fill="#FF901D"/>
<path d="M33.5365 51.246L32.7884 47.4172C32.6973 46.9512 32.2891 46.6151 31.8143 46.6151H27.8286L28.9645 52.4288H32.5624C33.1869 52.4288 33.6562 51.859 33.5365 51.246Z" fill="#FF6D3A"/>
</svg>
