<svg width="24" height="24" viewBox="0 0 24 24" fill="none" xmlns="http://www.w3.org/2000/svg">
<path opacity="0.8" fill-rule="evenodd" clip-rule="evenodd" d="M12.6436 23.9828C18.9718 23.6488 24 18.4114 24 12C24 5.37258 18.6274 0 12 0C5.37258 0 0 5.37258 0 12C0 14.498 0.763125 16.8176 2.06939 18.7386C2.25112 19.006 2.44312 19.2656 2.64539 19.5164C3.65044 20.7659 4.90041 21.8096 6.32278 22.5747C7.04325 22.9626 7.80783 23.2785 8.60766 23.5136C9.10725 23.661 9.62058 23.7761 10.1456 23.8575C10.75 23.9515 11.3692 24 12 24C12.216 24 12.4305 23.9941 12.6436 23.9828ZM14.8977 8.01641L19.3039 8.45493C19.9604 8.52137 20.2381 9.38512 19.7584 9.85022L16.4379 12.9199C16.2233 13.1192 16.1349 13.4115 16.198 13.7039L17.1828 18.0092C17.3344 18.7003 16.64 19.245 16.0593 18.8864L12.3851 16.6139C12.1453 16.4678 11.8549 16.4678 11.615 16.6139L7.941 18.8864C7.36023 19.245 6.66583 18.6871 6.81733 18.0092L7.81474 13.7039C7.87787 13.4115 7.78949 13.1192 7.57486 12.9199L4.25438 9.85022C3.76199 9.38512 4.02712 8.52137 4.68364 8.45493L9.08991 8.01641C9.36767 7.98983 9.62017 7.80379 9.72118 7.52473L11.2867 3.49832C11.5392 2.83389 12.4358 2.83389 12.6883 3.49832L14.2665 7.52473C14.38 7.80379 14.62 7.98983 14.8977 8.01641Z" fill="white"/>
</svg>
