<svg width="24" height="24" viewBox="0 0 24 24" fill="none" xmlns="http://www.w3.org/2000/svg">
<ellipse cx="18.5099" cy="10.2881" rx="5.46205" ry="3.4422" fill="#FFBC00"/>
<path d="M23.8015 12.8628C22.6425 13.9981 20.7255 14.7291 18.5112 14.7291C16.2968 14.7291 14.3797 13.998 13.2207 12.8627C13.1127 13.1327 13.0491 13.4138 13.0491 13.705C13.0491 15.6059 15.4945 17.1471 18.5111 17.1471C21.5275 17.1471 23.973 15.6059 23.973 13.705C23.973 13.4139 23.9094 13.1328 23.8015 12.8628Z" fill="#FFBC00"/>
<path d="M23.8015 16.2795C22.6425 17.4148 20.7255 18.1458 18.5112 18.1458C16.2968 18.1458 14.3797 17.4147 13.2207 16.2794C13.1127 16.5494 13.0491 16.8305 13.0491 17.1217C13.0491 19.0227 15.4945 20.5638 18.5111 20.5638C21.5275 20.5638 23.973 19.0227 23.973 17.1217C23.973 16.8306 23.9094 16.5495 23.8015 16.2795Z" fill="#FFBC00"/>
<path d="M23.8015 19.6963C22.6425 20.8316 20.7255 21.5626 18.5112 21.5626C16.2968 21.5626 14.3797 20.8315 13.2207 19.6962C13.1127 19.9662 13.0491 20.2472 13.0491 20.5385C13.0491 22.4394 15.4945 23.9805 18.5111 23.9805C21.5275 23.9805 23.973 22.4394 23.973 20.5385C23.973 20.2474 23.9094 19.9663 23.8015 19.6963Z" fill="#FFBC00"/>
<ellipse cx="5.46956" cy="3.4422" rx="5.46206" ry="3.4422" fill="#FFBC00"/>
<path d="M10.7598 6.01675C9.60076 7.15206 7.68381 7.88307 5.46947 7.88307C3.25507 7.88307 1.33802 7.15196 0.179013 6.0166C0.0710387 6.28664 0.00746155 6.56769 0.00746155 6.85894C0.00746155 8.75991 2.45282 10.301 5.46941 10.301C8.4859 10.301 10.9313 8.75991 10.9313 6.85894C10.9314 6.56784 10.8677 6.28674 10.7598 6.01675Z" fill="#FFBC00"/>
<path d="M10.7598 9.4335C9.60076 10.5688 7.68381 11.2998 5.46947 11.2998C3.25507 11.2998 1.33802 10.5687 0.179013 9.43335C0.0710387 9.70339 0.00746155 9.98444 0.00746155 10.2757C0.00746155 12.1767 2.45282 13.7177 5.46941 13.7177C8.4859 13.7177 10.9313 12.1767 10.9313 10.2757C10.9314 9.98454 10.8677 9.70349 10.7598 9.4335Z" fill="#FFBC00"/>
<path d="M10.7598 12.8502C9.60076 13.9856 7.68381 14.7166 5.46947 14.7166C3.25507 14.7166 1.33802 13.9854 0.179013 12.8501C0.0710387 13.1201 0.00746155 13.4012 0.00746155 13.6924C0.00746155 15.5934 2.45282 17.1345 5.46941 17.1345C8.4859 17.1345 10.9313 15.5934 10.9313 13.6924C10.9314 13.4013 10.8677 13.1202 10.7598 12.8502Z" fill="#FFBC00"/>
<path d="M10.7598 16.2668C9.60076 17.4021 7.68381 18.1331 5.46947 18.1331C3.25507 18.1331 1.33802 17.402 0.179013 16.2667C0.0710387 16.5367 0.00746155 16.8178 0.00746155 17.1091C0.00746155 19.01 2.45282 20.5511 5.46941 20.5511C8.4859 20.5511 10.9313 19.01 10.9313 17.1091C10.9314 16.8179 10.8677 16.5369 10.7598 16.2668Z" fill="#FFBC00"/>
<path d="M10.7598 19.6836C9.60076 20.8189 7.68381 21.5499 5.46947 21.5499C3.25507 21.5499 1.33802 20.8188 0.179013 19.6835C0.0710387 19.9535 0.00746155 20.2345 0.00746155 20.5258C0.00746155 22.4267 2.45282 23.9679 5.46941 23.9679C8.4859 23.9679 10.9313 22.4267 10.9313 20.5258C10.9314 20.2347 10.8677 19.9536 10.7598 19.6836Z" fill="#FFBC00"/>
</svg>
