<svg width="24" height="24" viewBox="0 0 24 24" fill="none" xmlns="http://www.w3.org/2000/svg">
<path fill-rule="evenodd" clip-rule="evenodd" d="M3.6 0H9.77141C10.0556 0 10.2857 0.243971 10.2857 0.545471V23.4545C10.2857 23.756 10.0557 24 9.77141 24H3.6C1.61517 24 0 22.2869 0 20.1818V3.81819C0 1.71307 1.61517 0 3.6 0ZM2.28571 7.42857C2.28571 9.0039 3.56694 10.2857 5.14286 10.2857C6.71872 10.2857 8 9.00396 8 7.42857C8 5.85319 6.71872 4.57143 5.14286 4.57143C3.56699 4.57143 2.28571 5.85324 2.28571 7.42857Z" fill="#D21C8E"/>
<ellipse cx="5.14286" cy="7.42855" rx="2.85714" ry="2.85714" fill="white" stroke="#D21C8E"/>
<ellipse cx="18.8571" cy="13.1429" rx="2.85714" ry="2.85714" fill="white" stroke="#D21C8E"/>
<path fill-rule="evenodd" clip-rule="evenodd" d="M14.1012 0H20.2726C22.2574 0 23.8725 1.71307 23.8726 3.81819V20.1818C23.8726 22.2869 22.2574 24 20.2726 24H14.1012C13.8169 24 13.5869 23.756 13.5869 23.4545V0.545471C13.5869 0.243971 13.8169 0 14.1012 0ZM15.8726 13.1429C15.8726 14.7182 17.1538 16 18.7297 16C20.3056 16 21.5869 14.7182 21.5869 13.1429C21.5869 11.5675 20.3056 10.2857 18.7297 10.2857C17.1539 10.2857 15.8726 11.5675 15.8726 13.1429Z" fill="#D21C8E"/>
</svg>
