<svg width="24" height="24" viewBox="0 0 24 24" fill="none" xmlns="http://www.w3.org/2000/svg">
<g opacity="0.8">
<path d="M23.619 10.8487L12.5189 0.208607C12.2291 -0.0695358 11.7709 -0.0695358 11.4811 0.208607L0.370056 10.8597C0.134949 11.0948 0 11.4187 0 11.7498C0 12.4388 0.561035 12.9999 1.25006 12.9999H3V22.5C3 23.328 3.672 24 4.5 24H8.75006C9.16406 24 9.50006 23.664 9.50006 23.25V16.75C9.50006 16.6128 9.61194 16.4998 9.75 16.4998H14.25C14.387 16.4998 14.4999 16.6128 14.4999 16.75V23.25C14.4999 23.664 14.8359 24 15.2499 24H19.5C20.328 24 21 23.328 21 22.5V12.9999H22.7499C23.439 12.9999 24 12.4388 24 11.7498C24 11.4187 23.8651 11.0948 23.619 10.8487Z" fill="white"/>
</g>
</svg>
