<svg width="24" height="24" viewBox="0 0 24 24" fill="none" xmlns="http://www.w3.org/2000/svg">
<g opacity="0.5">
<g opacity="0.8">
<path d="M2.99998 21V2.99998H15V4.49997H18V3C18 1.34315 16.6568 0 15 0H3C1.34315 0 0 1.34315 0 3V21C0 22.6569 1.34315 24 3 24H15C16.6569 24 18 22.6569 18 21V19.5H15V21H2.99998Z" fill="white"/>
<path d="M19.5 7.49999C18.9143 6.91427 17.9646 6.91427 17.3789 7.49999C16.7932 8.08571 16.7932 9.03536 17.3789 9.62108L18.2578 10.5H12C11.1715 10.5 10.5 11.1715 10.5 12C10.5 12.8284 11.1715 13.5 12 13.5H18.2578L17.3789 14.3789C16.7932 14.9646 16.7932 15.9143 17.3789 16.5C17.9646 17.0857 18.9143 17.0857 19.5 16.5L23.891 12.109C23.9512 12.0488 23.9512 11.9511 23.891 11.8909L19.5 7.49999Z" fill="white"/>
</g>
</g>
</svg>
