<svg width="24" height="24" viewBox="0 0 24 24" fill="none" xmlns="http://www.w3.org/2000/svg">
<path fill-rule="evenodd" clip-rule="evenodd" d="M24 9.93752C24 9.5677 23.7002 9.26787 23.3304 9.26787C22.9605 9.26787 22.6607 9.5677 22.6607 9.93752C22.6607 10.6565 22.2555 11.3135 21.6312 11.671C20.2964 9.40671 17.7241 7.92859 14.8835 7.92859H3.19642C2.82678 7.92859 2.52678 8.22859 2.52678 8.59823C2.52678 9.57993 2.94955 10.4942 3.67812 11.1255C3.29107 12.7214 3.01473 13.2857 1.8125 13.2857C1.44285 13.2857 1.14285 13.5857 1.14285 13.9554V17.9732C1.14285 18.3429 1.44285 18.6429 1.8125 18.6429C3.0875 18.6429 4.23258 19.5223 4.53571 20.7344L5.22544 23.4929C5.3 23.7911 5.56785 24 5.875 24H7.88392C8.19107 24 8.45892 23.7911 8.53348 23.4929L9.03259 21.4969C11.2685 22.1111 13.7224 22.1528 16.1103 21.4969L16.6094 23.4929C16.6839 23.7911 16.9518 24 17.2589 24H19.2679C19.5415 24 19.7879 23.8335 19.8897 23.579L22.0862 18.0875C22.7684 16.3817 22.7713 14.5058 22.1991 12.8871V12.8866L22.199 12.8864C23.2868 12.3085 24 11.1799 24 9.93752ZM5.875 14.625C5.50535 14.625 5.20535 14.325 5.20535 13.9554C5.20535 13.5857 5.50535 13.2857 5.875 13.2857C6.24464 13.2857 6.54464 13.5857 6.54464 13.9554C6.54464 14.325 6.24464 14.625 5.875 14.625ZM9.89285 11.9464H15.25C15.6196 11.9464 15.9196 11.6464 15.9196 11.2768C15.9196 10.9072 15.6196 10.6072 15.25 10.6072H9.89285C9.52321 10.6072 9.22321 10.9072 9.22321 11.2768C9.22321 11.6464 9.52321 11.9464 9.89285 11.9464Z" fill="#FF6565"/>
<ellipse cx="12.5714" cy="3.82139" rx="2.67857" ry="2.67857" fill="#FF6565"/>
</svg>
