<svg width="73" height="73" viewBox="0 0 73 73" fill="none" xmlns="http://www.w3.org/2000/svg">
<path d="M56.2638 44.5518C53.7634 42.0514 53.763 38.0039 56.2638 35.5031L59.77 31.9969C65.3398 26.4271 68.5342 18.8403 68.5342 11.1816C68.5342 7.43271 65.302 4.26562 61.476 4.26562C57.6252 4.26562 55.9871 7.11179 54.9703 7.90662L51.9541 4.8904C52.8556 4.21572 55.5716 0 61.476 0C67.6579 0 72.7998 5.00073 72.7998 11.1816C72.7998 20.2648 69.0081 28.7914 62.7862 35.0132L59.28 38.5194C58.4467 39.353 58.4464 40.702 59.28 41.5357C60.1137 42.3692 61.4626 42.3693 62.2963 41.5357L65.3125 44.5519C62.8121 47.0523 58.7647 47.0527 56.2638 44.5518Z" fill="#FABE2C"/>
<path d="M7.48717 44.5518L10.5034 41.5355C11.3369 42.369 12.686 42.3693 13.5196 41.5355C14.353 40.7022 14.3534 39.3529 13.5196 38.5193L10.0134 35.0131C3.79157 28.7911 0 20.2646 0 11.1816C0 4.99974 5.14292 0 11.3238 0C17.2304 0 19.9412 4.21344 20.8457 4.89025L17.8295 7.90648C16.798 7.10056 15.1649 4.26562 11.3238 4.26562C7.49783 4.26562 4.26562 7.43271 4.26562 11.1816C4.26562 18.8403 7.46001 26.4273 13.0298 31.9969L16.536 35.5031C19.0365 38.0034 19.0369 42.0511 16.536 44.5519C14.0355 47.0523 9.98796 47.0525 7.48717 44.5518Z" fill="#FABE2C"/>
<path d="M42.7983 56.6432V57.6627C42.7983 61.7606 45.5682 65.429 49.3859 66.3831L51.3296 66.8694V72.8H21.4702V66.8694L23.4139 66.3831C27.2317 65.429 30.0015 61.6937 30.0015 57.5035V56.6404C30.0015 53.2748 27.9042 50.2946 24.5287 48.8627C18.2497 46.1996 12.939 40.9742 12.939 34.125C12.939 32.2481 13.3542 30.4054 14.1732 28.6479C20.4024 15.2681 16.9671 7.84591 16.879 4.26562H55.9208C55.8327 7.86866 52.3889 15.251 58.6267 28.6479C59.4457 30.4054 59.8608 32.2481 59.8608 34.125C59.8608 40.9713 54.5544 46.1981 48.2711 48.8627C44.8956 50.2946 42.7983 53.2762 42.7983 56.6432Z" fill="#FFD400"/>
<path d="M42.7983 56.6432V57.6627C42.7983 61.7606 45.5682 65.429 49.3859 66.3831L51.3296 66.8694V72.8H36.3999V4.26562H55.9208C55.8327 7.86866 52.3889 15.251 58.6267 28.6479C59.4457 30.4054 59.8608 32.2481 59.8608 34.125C59.8608 40.9713 54.5544 46.1981 48.2711 48.8627C44.8956 50.2946 42.7983 53.2762 42.7983 56.6432Z" fill="#FFD400"/>
<path d="M50.4483 25.6876L40.7412 24.2771L36.4002 15.4814L32.0592 24.2771L22.3521 25.6876L29.3761 32.5339L27.7182 42.2013L36.4002 37.637L45.0821 42.2013L43.4242 32.5339L50.4483 25.6876Z" fill="#FF9100"/>
<path d="M43.424 32.5339L45.0819 42.2013L36.3999 37.637V15.4814L40.7409 24.2771L50.448 25.6876L43.424 32.5339Z" fill="#FF9100"/>
</svg>
