<svg width="24" height="24" viewBox="0 0 24 24" fill="none" xmlns="http://www.w3.org/2000/svg">
<g opacity="0.8">
<path fill-rule="evenodd" clip-rule="evenodd" d="M10.5145 6.27273L1.99997 6.03125C0.896953 6.03125 0 6.9282 0 8.03122V13.0312C0 14.1342 0.896953 15.0312 2.00002 15.0312H8.5C8.77637 15.0312 9.00002 14.8076 9.00002 14.5312V14.0312V10.1566C9.00002 9.32022 9.67807 8.64305 10.5145 8.64305V6.27273ZM3.6162 10.5981C3.85545 10.7363 3.93748 11.042 3.7993 11.2812C3.70653 11.4414 3.53853 11.5312 3.3657 11.5312C3.28072 11.5312 3.1948 11.5098 3.11619 11.4643L2.99998 11.3973V11.5312C2.99998 11.8076 2.77634 12.0312 2.49997 12.0312C2.22364 12.0312 2 11.8076 2 11.5312V11.3973L1.8838 11.4643C1.80519 11.5098 1.71927 11.5312 1.63428 11.5312C1.46141 11.5312 1.29345 11.4414 1.20069 11.2812C1.0625 11.042 1.14453 10.7363 1.38378 10.5981L1.4997 10.5312L1.38378 10.4644C1.14453 10.3262 1.0625 10.0205 1.20069 9.78125C1.33887 9.542 1.64502 9.45997 1.8838 9.59816L2 9.66519V9.53122C2 9.25484 2.22364 9.0312 2.50002 9.0312C2.77639 9.0312 3.00003 9.25484 3.00003 9.53122V9.66519L3.11623 9.59811C3.35356 9.45992 3.66069 9.54195 3.79934 9.7812C3.93753 10.0205 3.8555 10.3261 3.61625 10.4643L3.50033 10.5312L3.6162 10.5981ZM7.79933 11.2812C7.93752 11.042 7.85548 10.7363 7.61623 10.5981L7.50031 10.5312L7.61623 10.4644C7.85548 10.3262 7.93752 10.0205 7.79933 9.78125C7.66016 9.542 7.35402 9.45997 7.11622 9.59816L7.00002 9.66523V9.53127C7.00002 9.25489 6.77637 9.03125 6.5 9.03125C6.22363 9.03125 5.99998 9.25489 5.99998 9.53127V9.66523L5.88378 9.59816C5.64402 9.45997 5.33839 9.542 5.20067 9.78125C5.06248 10.0205 5.14452 10.3262 5.38377 10.4644L5.49969 10.5312L5.38377 10.5981C5.14452 10.7363 5.06248 11.042 5.20067 11.2812C5.29344 11.4414 5.46139 11.5312 5.63427 11.5312C5.71925 11.5312 5.80517 11.5098 5.88378 11.4643L5.99998 11.3973V11.5312C5.99998 11.8076 6.22363 12.0312 6.5 12.0312C6.77637 12.0312 7.00002 11.8076 7.00002 11.5312V11.3973L7.11622 11.4643C7.19483 11.5098 7.28075 11.5312 7.36573 11.5312C7.53856 11.5312 7.70656 11.4414 7.79933 11.2812Z" fill="white"/>
<path fill-rule="evenodd" clip-rule="evenodd" d="M21.8519 9.81822V9.09092C21.8519 6.28409 19.5255 4 16.6667 4C13.8079 4 11.4815 6.28409 11.4815 9.09092V9.81822C10.6648 9.81822 10 10.4709 10 11.2727V18.5455C10 19.3473 10.6648 20 11.4815 20H21.8519C22.6685 20 23.3333 19.3473 23.3333 18.5455V11.2727C23.3334 10.4709 22.6686 9.81822 21.8519 9.81822ZM17.4075 15.4127V16.3637C17.4075 16.7657 17.0761 17.091 16.6667 17.091C16.2573 17.091 15.9259 16.7657 15.9259 16.3637V15.4127C15.4913 15.1588 15.1852 14.7131 15.1852 14.1818C15.1852 13.38 15.85 12.7273 16.6666 12.7273C17.4833 12.7273 18.1481 13.38 18.1481 14.1818C18.1482 14.7131 17.842 15.1588 17.4075 15.4127ZM14.4445 9.81822H18.8889V9.09092C18.8889 7.88779 17.8921 6.90911 16.6667 6.90911C15.4413 6.90911 14.4445 7.88779 14.4445 9.09092V9.81822Z" fill="white"/>
</g>
</svg>
