<svg width="18" height="24" viewBox="0 0 18 24" fill="none" xmlns="http://www.w3.org/2000/svg">
<path fill-rule="evenodd" clip-rule="evenodd" d="M9.14863 0.0285263L17.632 3.02268C17.8313 3.09337 17.9649 3.28195 17.9649 3.49346V9.48177C17.9649 17.2313 16.8158 20.0637 9.20711 23.8999C9.13647 23.9355 9.05946 23.9535 8.98246 23.9535C8.90545 23.9535 8.82844 23.9355 8.7578 23.8999C1.14915 20.0637 0 17.2313 0 9.48177V3.49346C0 3.28195 0.133567 3.09332 0.332866 3.02268L8.81628 0.0285263C8.92346 -0.00950877 9.0414 -0.00950877 9.14863 0.0285263ZM8.7251 21.6362C8.87036 21.7245 9.06236 21.7308 9.21586 21.6499C14.3738 18.9272 15.6895 17.0329 15.92 11.9998C15.9259 11.8643 15.8757 11.7298 15.7821 11.6313C15.6886 11.5339 15.5575 11.4778 15.4215 11.4778H9.98049C9.70465 11.4778 9.48145 11.2546 9.48145 10.9788V2.61622C9.48145 2.45444 9.40253 2.3024 9.27046 2.20883C9.18615 2.1489 9.08627 2.11723 8.98246 2.11723C8.92547 2.11723 8.86989 2.12649 8.81726 2.14549L2.32894 4.43545C2.13011 4.50563 1.99607 4.69473 1.99607 4.90572V9.48177C1.99607 10.4092 2.0102 11.2376 2.04482 11.9998C2.05698 12.2668 2.27579 12.4759 2.54334 12.4759H7.98433C8.26016 12.4759 8.48337 12.6991 8.48337 12.975V21.2089C8.48337 21.3828 8.57595 21.5466 8.7251 21.6362Z" fill="white"/>
</svg>
