<svg width="24" height="24" viewBox="0 0 24 24" fill="none" xmlns="http://www.w3.org/2000/svg">
<path fill-rule="evenodd" clip-rule="evenodd" d="M22.3321 19.6089H18.5193C16.1166 19.6089 14.1619 17.6541 14.1619 15.2514C14.1619 12.8488 16.1166 10.894 18.5193 10.894H22.3321C22.6332 10.894 22.8768 10.6504 22.8768 10.3493V8.71527C22.8768 7.57307 21.9908 6.64417 20.8715 6.55409L17.7433 1.09026C17.4534 0.584933 16.9853 0.223758 16.4252 0.0737839C15.8677 -0.0751693 15.2848 0.00306051 14.7858 0.293461L4.06226 6.53652H2.17888C0.977295 6.53652 0.000137329 7.51363 0.000137329 8.71527V21.7876C0.000137329 22.9892 0.977244 23.9663 2.17888 23.9663H20.698C21.8996 23.9663 22.8768 22.9892 22.8768 21.7876V20.1536C22.8768 19.8525 22.6332 19.6089 22.3321 19.6089ZM18.4188 4.46354L19.6057 6.53653H14.8582L18.4188 4.46354ZM15.3342 1.23492L6.22739 6.53652H8.37774L16.7987 1.63373L16.7976 1.63174C16.6534 1.38015 16.4215 1.20035 16.1433 1.1259C15.8682 1.05247 15.5805 1.09077 15.3342 1.23492Z" fill="#538C31"/>
<path fill-rule="evenodd" clip-rule="evenodd" d="M18.5193 11.9834H22.3321C23.2332 11.9834 23.9661 12.7164 23.9661 13.6174V16.8855C23.9661 17.7866 23.2332 18.5196 22.3321 18.5196H18.5193C16.7172 18.5196 15.2512 17.0536 15.2512 15.2515C15.2512 13.4493 16.7172 11.9834 18.5193 11.9834ZM17.43 15.2515C17.43 15.852 17.9188 16.3408 18.5193 16.3408C19.1199 16.3408 19.6087 15.852 19.6087 15.2515C19.6087 14.651 19.1198 14.1621 18.5193 14.1621C17.9188 14.1621 17.43 14.651 17.43 15.2515Z" fill="#538C31"/>
</svg>
