<svg width="24" height="24" viewBox="0 0 24 24" fill="none" xmlns="http://www.w3.org/2000/svg">
<g opacity="0.8">
<path d="M5.60539 4.4056L15.1677 1.7955L14.6613 0.771932C14.33 0.106612 13.5219 -0.168135 12.8566 0.163178L4.2963 4.4056H5.60539Z" fill="white"/>
<path d="M18.136 1.87097C18.0175 1.87097 17.899 1.88713 17.7805 1.91946L15.534 2.5336L8.6734 4.40565H16.4606H19.8545L19.4343 2.86491C19.2727 2.26424 18.7286 1.87097 18.136 1.87097Z" fill="white"/>
<path fill-rule="evenodd" clip-rule="evenodd" d="M20.9508 5.34839H21.2579C22.0013 5.34839 22.6047 5.95176 22.602 6.69519V10.372H22.3165H21.899H21.4815H14.6074C14.5158 10.372 14.4242 10.3774 14.3354 10.3881C13.802 10.4501 13.3253 10.6979 12.9697 11.0642C12.5683 11.4764 12.3205 12.0393 12.3205 12.6588V13.5854V14.0029V14.4204V15.6541C12.3205 16.9174 13.3468 17.9437 14.6101 17.9437H22.602V21.7013C22.602 22.4447 21.9987 23.0481 21.2552 23.0481H1.3468C0.603367 23.0481 0 22.4447 0 21.7013V8.39216V6.85681V6.69519C0 6.57398 0.0188552 6.45546 0.0484848 6.34233C0.0969697 6.16186 0.183165 5.99755 0.296296 5.85479C0.544108 5.54502 0.923906 5.34839 1.34949 5.34839H2.15219H2.39192H3.68485H5.2202H16.9293H20.1158H20.5333H20.9508ZM15 12C14.4477 12 14 12.4477 14 13V15C14 15.5523 14.4477 16 15 16H23C23.5523 16 24 15.5523 24 15V13C24 12.4477 23.5523 12 23 12H15Z" fill="white"/>
</g>
</svg>
