<svg width="701" height="148" viewBox="0 0 701 148" fill="none" xmlns="http://www.w3.org/2000/svg">
<g opacity="0.8" filter="url(#filter0_d)">
<path fill-rule="evenodd" clip-rule="evenodd" d="M15.3886 6.02534C15.5509 2.63567 18.3499 0 21.7435 0H678.289C681.65 0 684.434 2.59227 684.644 5.94597C685.356 17.3567 686.8 43.0615 686.8 64.1074C686.8 84.3285 685.467 104.549 684.731 114.184C684.478 117.484 681.721 120 678.411 120H21.7499C18.3537 120 15.5534 117.362 15.3932 113.97C14.9051 103.631 14 81.5219 14 59.7158C14 37.9787 14.8994 16.2415 15.3886 6.02534Z" fill="url(#paint0_linear)"/>
<path d="M16.8868 6.09709C17.0104 3.51733 19.1401 1.5 21.7435 1.5H678.289C680.865 1.5 682.987 3.48391 683.147 6.0395C683.859 17.4469 685.3 43.1117 685.3 64.1074C685.3 84.2726 683.971 104.45 683.235 114.069C683.043 116.575 680.949 118.5 678.411 118.5H21.7499C19.144 118.5 17.0134 116.481 16.8915 113.899C16.4038 103.569 15.5 81.4871 15.5 59.7158C15.5 38.0137 16.3981 16.3039 16.8868 6.09709Z" stroke="url(#paint1_linear)" stroke-width="3"/>
</g>
<defs>
<filter id="filter0_d" x="0" y="0" width="700.8" height="148" filterUnits="userSpaceOnUse" color-interpolation-filters="sRGB">
<feFlood flood-opacity="0" result="BackgroundImageFix"/>
<feColorMatrix in="SourceAlpha" type="matrix" values="0 0 0 0 0 0 0 0 0 0 0 0 0 0 0 0 0 0 127 0"/>
<feOffset dy="14"/>
<feGaussianBlur stdDeviation="7"/>
<feColorMatrix type="matrix" values="0 0 0 0 0 0 0 0 0 0 0 0 0 0 0 0 0 0 0.772618 0"/>
<feBlend mode="normal" in2="BackgroundImageFix" result="effect1_dropShadow"/>
<feBlend mode="normal" in="SourceGraphic" in2="effect1_dropShadow" result="shape"/>
</filter>
<linearGradient id="paint0_linear" x1="23.9314" y1="1.11738" x2="23.9314" y2="117.575" gradientUnits="userSpaceOnUse">
<stop stop-color="#121830"/>
<stop offset="1" stop-color="#131D3C"/>
</linearGradient>
<linearGradient id="paint1_linear" x1="15.6337" y1="0.58277" x2="15.6337" y2="120" gradientUnits="userSpaceOnUse">
<stop stop-color="#858585"/>
<stop offset="0.543576" stop-color="white"/>
<stop offset="1" stop-color="#3E3E3E"/>
</linearGradient>
</defs>
</svg>
