<svg width="20" height="20" viewBox="0 0 20 20" fill="none" xmlns="http://www.w3.org/2000/svg">
<path fill-rule="evenodd" clip-rule="evenodd" d="M3 0H8.14285C8.3797 0 8.57139 0.203309 8.57143 0.454559V19.5454C8.57143 19.7967 8.37974 20 8.14285 20H3C1.34598 20 0 18.5724 0 16.8182V3.18183C0 1.42755 1.34598 0 3 0ZM1.90476 6.19048C1.90476 7.50325 2.97245 8.57143 4.28571 8.57143C5.59894 8.57143 6.66667 7.5033 6.66667 6.19048C6.66667 4.87766 5.59894 3.80952 4.28571 3.80952C2.97249 3.80952 1.90476 4.8777 1.90476 6.19048Z" fill="#D21C8E"/>
<ellipse cx="4.28574" cy="6.19052" rx="2.38095" ry="2.38095" fill="white" stroke="#D21C8E"/>
<ellipse cx="15.7144" cy="10.9525" rx="2.38095" ry="2.38095" fill="white" stroke="#D21C8E"/>
<path fill-rule="evenodd" clip-rule="evenodd" d="M11.7508 0H16.8937C18.5477 0 19.8937 1.42755 19.8937 3.18183V16.8182C19.8937 18.5724 18.5477 20 16.8937 20H11.7508C11.514 20 11.3223 19.7967 11.3223 19.5454V0.454559C11.3223 0.203309 11.514 0 11.7508 0ZM13.227 10.9524C13.227 12.2652 14.2947 13.3333 15.608 13.3333C16.9212 13.3333 17.9889 12.2652 17.9889 10.9524C17.9889 9.6396 16.9212 8.57143 15.608 8.57143C14.2948 8.57143 13.227 9.6396 13.227 10.9524Z" fill="#D21C8E"/>
</svg>
