        <svg width="20" height="20" viewBox="0 0 20 20" fill="none" xmlns="http://www.w3.org/2000/svg">
          <path
            d="M19.8194 9.90968C19.8194 15.2043 15.667 19.5293 10.4412 19.8052C10.2652 19.8145 10.0881 19.8194 9.90968 19.8194C9.38872 19.8194 8.87745 19.7793 8.37832 19.7016C7.94474 19.6345 7.52083 19.5394 7.10826 19.4177C6.44775 19.2235 5.81636 18.9627 5.22139 18.6423C4.04679 18.0105 3.01455 17.1486 2.18458 16.1168C2.01755 15.9097 1.85899 15.6953 1.70892 15.4745C0.630194 13.8881 0 11.9725 0 9.90968C0 4.43671 4.43671 0 9.90968 0C15.3826 0 19.8194 4.43671 19.8194 9.90968Z"
            fill="#D21C8E" />
          <path
            d="M15.4754 7.66149L12.0668 7.33918C11.8519 7.31964 11.6662 7.1829 11.5784 6.97779L10.3575 4.01837C10.1622 3.53001 9.46863 3.53001 9.27329 4.01837L8.06217 6.97779C7.98403 7.1829 7.78869 7.31964 7.57381 7.33918L4.1651 7.66149C3.65721 7.71033 3.4521 8.34519 3.83302 8.68704L6.40176 10.9432C6.5678 11.0897 6.63617 11.3046 6.58734 11.5195L5.81574 14.6839C5.69853 15.1822 6.23572 15.5923 6.68501 15.3287L9.52723 13.6584C9.71281 13.551 9.93745 13.551 10.123 13.6584L12.9653 15.3287C13.4146 15.5923 13.9518 15.1919 13.8345 14.6839L13.0727 11.5195C13.0239 11.3046 13.0922 11.0897 13.2583 10.9432L15.827 8.68704C16.1982 8.34519 15.9833 7.71033 15.4754 7.66149Z"
            fill="white" />
        </svg>