<svg width="306" height="105" viewBox="0 0 306 105" fill="none" xmlns="http://www.w3.org/2000/svg">
<rect x="3" y="4" width="74" height="73" fill="#183B24" stroke="white" stroke-width="6"/>
<path d="M37.2524 46.0687L34.2983 49.3573V59H21.367V19.9831H34.2983V34.1407L47.1181 19.9831H61.4428L45.8361 37.1506L62.2232 59H47.0066L37.2524 46.0687Z" fill="white"/>
<g clip-path="url(#clip0)">
<rect x="67.7178" y="27.3844" width="74" height="73" transform="rotate(-5 67.7178 27.3844)" fill="#F9CF3E" stroke="#63C674" stroke-width="6"/>
<path d="M124.809 67.6403L125.673 77.524L93.3569 80.3513L89.9564 41.4829L121.551 38.7188L122.416 48.6025L103.703 50.2396L104.102 54.7927L120.537 53.3548L121.363 62.7943L104.927 64.2322L105.374 69.3406L124.809 67.6403Z" fill="#183B24"/>
</g>
<g clip-path="url(#clip1)">
<rect x="220.959" y="27.3844" width="74" height="73" transform="rotate(-5 220.959 27.3844)" fill="white" stroke="#63C674" stroke-width="6"/>
<path d="M261.703 79.9251C257.52 80.291 253.687 79.7498 250.203 78.3015C246.719 76.8532 243.899 74.6753 241.742 71.7681C239.583 68.8238 238.333 65.4082 237.992 61.5213C237.652 57.6345 238.292 54.0723 239.911 50.8346C241.527 47.56 243.924 44.907 247.104 42.8757C250.283 40.8444 253.964 39.6458 258.147 39.2798C262.33 38.9139 266.164 39.4551 269.647 40.9034C273.131 42.3518 275.953 44.5481 278.113 47.4924C280.27 50.3997 281.518 53.7967 281.858 57.6836C282.198 61.5704 281.56 65.1512 279.945 68.4258C278.325 71.6634 275.926 74.2979 272.747 76.3292C269.567 78.3605 265.886 79.5591 261.703 79.9251ZM260.775 69.3196C262.404 69.1771 263.832 68.6605 265.06 67.7697C266.321 66.8388 267.278 65.6174 267.929 64.1057C268.577 62.557 268.815 60.8017 268.643 58.8398C268.471 56.8778 267.934 55.209 267.03 53.8334C266.123 52.4207 264.969 51.3839 263.569 50.7232C262.202 50.0221 260.704 49.7429 259.075 49.8854C257.446 50.0279 256.001 50.5646 254.74 51.4956C253.512 52.3863 252.575 53.606 251.927 55.1547C251.276 56.6664 251.036 58.4032 251.208 60.3652C251.379 62.3271 251.919 64.0144 252.826 65.4271C253.729 66.8028 254.864 67.8411 256.231 68.5421C257.632 69.2029 259.147 69.4621 260.775 69.3196Z" fill="#183B24"/>
</g>
<g clip-path="url(#clip2)">
<rect x="158.829" y="4.44866" width="74" height="73" transform="rotate(10 158.829 4.44866)" fill="#183B24" stroke="#63C674" stroke-width="6"/>
<path d="M210.944 29.8677L204.169 68.2918L193.52 66.4141L181.997 46.384L178.919 63.8396L166.294 61.6134L173.069 23.1893L183.718 25.067L195.241 45.0971L198.319 27.6416L210.944 29.8677Z" fill="#F9CF3E"/>
</g>
<defs>
<clipPath id="clip0">
<rect width="80" height="79" fill="white" transform="translate(64.4678 24.6573) rotate(-5)"/>
</clipPath>
<clipPath id="clip1">
<rect width="81" height="80" fill="white" transform="translate(217.664 24.6198) rotate(-5)"/>
</clipPath>
<clipPath id="clip2">
<rect width="80" height="79" fill="white" transform="translate(156.396 0.973297) rotate(10)"/>
</clipPath>
</defs>
</svg>
