<svg width="291" height="110" viewBox="0 0 291 110" fill="none" xmlns="http://www.w3.org/2000/svg">
<g clip-path="url(#clip0)">
<g filter="url(#filter0_d)">
<rect x="146.464" y="7.51358" width="143.5" height="55.3" transform="rotate(3 146.464 7.51358)" fill="url(#paint0_linear)"/>
</g>
<path d="M26.438 82.9002C22.5884 82.9002 19.1202 82.1025 16.0335 80.5072C12.9469 78.8771 10.5192 76.6228 8.75039 73.7442C7.01631 70.831 6.14927 67.5362 6.14927 63.86C6.14927 60.1837 7.01631 56.9063 8.75039 54.0277C10.5192 51.1145 12.9469 48.8602 16.0335 47.2648C19.1202 45.6348 22.5884 44.8197 26.438 44.8197C29.9756 44.8197 33.1316 45.444 35.9061 46.6926C38.6807 47.9411 40.9696 49.7445 42.7731 52.1029L35.0217 59.0219C32.7674 56.178 30.1143 54.756 27.0623 54.756C24.4959 54.756 22.4323 55.5884 20.8716 57.2531C19.311 58.8832 18.5306 61.0854 18.5306 63.86C18.5306 66.6345 19.311 68.8541 20.8716 70.5188C22.4323 72.1489 24.4959 72.9639 27.0623 72.9639C30.1143 72.9639 32.7674 71.542 35.0217 68.6981L42.7731 75.6171C40.9696 77.9754 38.6807 79.7789 35.9061 81.0274C33.1316 82.2759 29.9756 82.9002 26.438 82.9002ZM56.7201 56.6809C58.801 54.2878 61.8703 53.0913 65.9281 53.0913L65.9281 63.4958C64.9917 63.3571 64.1246 63.2877 63.327 63.2877C59.3039 63.2877 57.2924 65.3339 57.2924 69.4264L57.2924 82.0678L45.5353 82.0678L45.5353 53.6115L56.7201 53.6115L56.7201 56.6809ZM101.286 53.6115L89.5806 82.6401C88.0892 86.351 86.2338 88.9521 84.0142 90.4435C81.7945 91.9348 79.072 92.6804 75.8466 92.6804C74.2513 92.6804 72.6386 92.4377 71.0085 91.9521C69.4132 91.5012 68.1473 90.8943 67.2109 90.1313L71.1126 82.0678C71.7022 82.5187 72.3611 82.8829 73.0894 83.1603C73.8524 83.4378 74.5807 83.5765 75.2744 83.5765C76.5576 83.5765 77.5287 83.195 78.1876 82.432L66.2225 53.6115L78.2917 53.6115L84.1702 68.8541L90.1528 53.6115L101.286 53.6115ZM121.653 53.0913C124.15 53.0913 126.439 53.6982 128.52 54.9121C130.635 56.0913 132.3 57.808 133.514 60.0623C134.763 62.3166 135.387 64.9178 135.387 67.8657C135.387 70.8136 134.763 73.4148 133.514 75.6691C132.3 77.8887 130.635 79.6054 128.52 80.8193C126.439 81.9985 124.15 82.5881 121.653 82.5881C118.497 82.5881 116.087 81.773 114.422 80.143L114.422 92.1602L102.665 92.1602L102.665 53.6115L113.85 53.6115L113.85 55.9526C115.549 54.0451 118.15 53.0913 121.653 53.0913ZM118.844 73.4321C120.196 73.4321 121.306 72.9466 122.173 71.9755C123.04 71.0044 123.474 69.6345 123.474 67.8657C123.474 66.0969 123.04 64.727 122.173 63.7559C121.306 62.7502 120.196 62.2473 118.844 62.2473C117.491 62.2473 116.381 62.7502 115.514 63.7559C114.647 64.727 114.214 66.0969 114.214 67.8657C114.214 69.6345 114.647 71.0044 115.514 71.9755C116.381 72.9466 117.491 73.4321 118.844 73.4321ZM159.637 81.0794C157.868 82.0852 155.458 82.5881 152.406 82.5881C148.418 82.5881 145.348 81.6343 143.198 79.7268C141.048 77.7847 139.973 74.8887 139.973 71.0391L139.973 63.7559L136.071 63.7559L136.071 55.1722L139.973 55.1722L139.973 47.2128L151.73 47.2128L151.73 55.1722L157.556 55.1722L157.556 63.7559L151.73 63.7559L151.73 70.935C151.73 71.8021 151.955 72.4784 152.406 72.9639C152.857 73.4494 153.447 73.6922 154.175 73.6922C155.181 73.6922 156.065 73.4321 156.828 72.9119L159.637 81.0794ZM176.454 82.5881C173.298 82.5881 170.454 81.9638 167.923 80.7153C165.426 79.432 163.466 77.6806 162.044 75.461C160.622 73.2067 159.911 70.6576 159.911 67.8137C159.911 64.9698 160.622 62.438 162.044 60.2184C163.466 57.9641 165.426 56.2127 167.923 54.9641C170.454 53.7156 173.298 53.0913 176.454 53.0913C179.645 53.0913 182.489 53.7156 184.986 54.9641C187.518 56.2127 189.477 57.9641 190.865 60.2184C192.287 62.438 192.998 64.9698 192.998 67.8137C192.998 70.6576 192.287 73.2067 190.865 75.461C189.477 77.6806 187.518 79.432 184.986 80.7153C182.489 81.9638 179.645 82.5881 176.454 82.5881ZM176.454 73.4321C177.807 73.4321 178.917 72.9466 179.784 71.9755C180.651 70.9697 181.084 69.5824 181.084 67.8137C181.084 66.0449 180.651 64.675 179.784 63.7039C178.917 62.7328 177.807 62.2473 176.454 62.2473C175.102 62.2473 173.992 62.7328 173.125 63.7039C172.258 64.675 171.824 66.0449 171.824 67.8137C171.824 69.5824 172.258 70.9697 173.125 71.9755C173.992 72.9466 175.102 73.4321 176.454 73.4321Z" fill="white"/>
<path d="M176.36 49.6261C174.542 49.5308 172.76 49.242 171.014 48.7598C169.268 48.2776 167.866 47.6962 166.807 47.0157L169.527 41.3367C170.483 41.9859 171.628 42.5147 172.961 42.9232C174.294 43.3316 175.597 43.5692 176.869 43.6359C177.882 43.689 178.588 43.6479 178.986 43.5124C179.411 43.3524 179.632 43.1035 179.65 42.7658C179.668 42.4281 179.42 42.1808 178.907 42.0236C178.421 41.8679 177.609 41.6951 176.473 41.5054C174.744 41.2064 173.277 40.869 172.072 40.4933C170.869 40.0917 169.824 39.3988 168.938 38.4146C168.078 37.4319 167.694 36.0703 167.785 34.3299C167.857 32.9532 168.337 31.7412 169.226 30.6937C170.114 29.6463 171.393 28.8408 173.064 28.2772C174.76 27.7149 176.765 27.4944 179.076 27.6155C180.687 27.6999 182.25 27.9381 183.766 28.3302C185.31 28.6976 186.612 29.1956 187.673 29.8242L184.953 35.5032C183.138 34.3661 181.113 33.7391 178.879 33.622C176.957 33.5213 175.978 33.8086 175.942 34.484C175.925 34.8216 176.172 35.082 176.683 35.2651C177.196 35.4222 178.007 35.595 179.117 35.7834C180.847 36.0824 182.3 36.4321 183.477 36.8324C184.68 37.234 185.712 37.9262 186.572 38.909C187.458 39.8931 187.856 41.2554 187.764 42.9957C187.695 44.3205 187.216 45.5066 186.328 46.554C185.439 47.6014 184.147 48.4062 182.45 48.9685C180.754 49.5308 178.724 49.75 176.36 49.6261ZM191.275 21.0268L200.081 21.4883L198.566 50.3991L189.76 49.9376L191.275 21.0268ZM213.395 51.567C211.031 51.4431 208.926 50.864 207.079 49.8295C205.259 48.7703 203.86 47.3817 202.882 45.6634C201.906 43.9192 201.473 41.9821 201.585 39.8521C201.696 37.7221 202.328 35.8538 203.48 34.2471C204.634 32.6145 206.17 31.3797 208.09 30.5426C210.035 29.7068 212.189 29.3509 214.553 29.4748C216.943 29.6 219.048 30.1792 220.87 31.2123C222.717 32.2468 224.116 33.6355 225.066 35.3784C226.044 37.0966 226.477 39.0208 226.366 41.1508C226.254 43.2808 225.621 45.1621 224.468 46.7947C223.342 48.4027 221.805 49.6375 219.859 50.4992C217.94 51.3363 215.785 51.6923 213.395 51.567ZM213.755 44.7095C214.768 44.7626 215.618 44.4425 216.305 43.7492C216.994 43.0299 217.373 42.0079 217.443 40.6832C217.512 39.3584 217.241 38.3153 216.63 37.554C216.019 36.7926 215.207 36.3854 214.194 36.3323C213.181 36.2792 212.33 36.5993 211.643 37.2926C210.955 37.9859 210.577 38.9949 210.507 40.3197C210.438 41.6444 210.708 42.7005 211.318 43.4878C211.929 44.2492 212.742 44.6564 213.755 44.7095ZM243.99 52.0374C242.625 52.7212 240.8 53.0033 238.515 52.8835C235.527 52.7269 233.266 51.8921 231.73 50.3791C230.196 48.84 229.505 46.6289 229.656 43.7456L229.941 38.2907L227.019 38.1375L227.356 31.7086L230.278 31.8617L230.591 25.9003L239.397 26.3618L239.084 32.3232L243.448 32.5519L243.111 38.9809L238.747 38.7522L238.465 44.1291C238.431 44.7785 238.574 45.2939 238.892 45.6752C239.211 46.0566 239.643 46.2616 240.188 46.2902C240.942 46.3296 241.614 46.1695 242.206 45.8098L243.99 52.0374ZM254.175 53.7042C252.356 53.6089 250.574 53.3201 248.828 52.8379C247.082 52.3557 245.68 51.7743 244.622 51.0937L247.342 45.4148C248.298 46.064 249.442 46.5928 250.775 47.0013C252.108 47.4097 253.411 47.6473 254.684 47.714C255.697 47.7671 256.402 47.7259 256.8 47.5905C257.225 47.4305 257.447 47.1816 257.464 46.8439C257.482 46.5062 257.235 46.2588 256.722 46.1017C256.235 45.946 255.424 45.7732 254.288 45.5835C252.558 45.2844 251.091 44.9471 249.887 44.5714C248.683 44.1697 247.639 43.4768 246.753 42.4927C245.893 41.5099 245.508 40.1484 245.599 38.408C245.671 37.0313 246.152 35.8192 247.04 34.7718C247.929 33.7244 249.208 32.9189 250.878 32.3553C252.575 31.793 254.579 31.5725 256.891 31.6936C258.501 31.778 260.065 32.0162 261.581 32.4083C263.125 32.7757 264.427 33.2737 265.488 33.9023L262.768 39.5813C260.952 38.4442 258.927 37.8172 256.693 37.7001C254.771 37.5994 253.792 37.8867 253.757 38.562C253.739 38.8997 253.986 39.1601 254.497 39.3432C255.01 39.5003 255.822 39.673 256.932 39.8615C258.661 40.1605 260.114 40.5101 261.292 40.9104C262.495 41.3121 263.526 42.0043 264.387 42.9871C265.273 43.9712 265.67 45.3335 265.579 47.0738C265.51 48.3986 265.031 49.5847 264.142 50.6321C263.254 51.6795 261.961 52.4843 260.265 53.0466C258.568 53.6089 256.538 53.8281 254.175 53.7042Z" fill="#084E31"/>
</g>
<defs>
<filter id="filter0_d" x="143.569" y="7.51358" width="152.198" height="68.7344" filterUnits="userSpaceOnUse" color-interpolation-filters="sRGB">
<feFlood flood-opacity="0" result="BackgroundImageFix"/>
<feColorMatrix in="SourceAlpha" type="matrix" values="0 0 0 0 0 0 0 0 0 0 0 0 0 0 0 0 0 0 127 0"/>
<feOffset dx="3" dy="3"/>
<feGaussianBlur stdDeviation="1.5"/>
<feColorMatrix type="matrix" values="0 0 0 0 0 0 0 0 0 0 0 0 0 0 0 0 0 0 0.300508 0"/>
<feBlend mode="normal" in2="BackgroundImageFix" result="effect1_dropShadow"/>
<feBlend mode="normal" in="SourceGraphic" in2="effect1_dropShadow" result="shape"/>
</filter>
<linearGradient id="paint0_linear" x1="146.704" y1="7.7042" x2="146.709" y2="62.8188" gradientUnits="userSpaceOnUse">
<stop stop-color="#FFD22A"/>
<stop offset="1" stop-color="#EB8A0F"/>
</linearGradient>
<clipPath id="clip0">
<rect width="285" height="95" fill="white" transform="translate(5.95703 0.149902) rotate(3)"/>
</clipPath>
</defs>
</svg>
