<svg width="20" height="20" viewBox="0 0 20 20" fill="none" xmlns="http://www.w3.org/2000/svg">
<path fill-rule="evenodd" clip-rule="evenodd" d="M11.3909 0.114555C13.1499 0.384355 14.8573 1.13235 16.3087 2.37469C20.4551 5.92369 20.9394 12.162 17.3903 16.3085C15.0837 19.0036 11.6403 20.1516 8.37428 19.6505C6.61528 19.3806 4.90794 18.6327 3.45654 17.3904C-0.68999 13.8413 -1.17426 7.60295 2.37481 3.45642C4.68154 0.761355 8.12474 -0.386512 11.3909 0.114555ZM15.2037 11.7081L18.2241 12.7493C18.6101 11.6258 18.7659 10.4249 18.6711 9.20428C18.6126 8.45015 18.4603 7.71842 18.2218 7.02155L15.2047 8.05988C15.6056 9.23435 15.6105 10.5213 15.2037 11.7081ZM16.529 4.09807L14.1244 6.18687C13.9465 5.98321 13.7525 5.78947 13.5409 5.60841C12.7765 4.95414 11.8869 4.54208 10.9651 4.36228L11.5715 1.24621C13.0601 1.53488 14.4521 2.19914 15.6138 3.19348C15.9431 3.47534 16.2485 3.77787 16.529 4.09807ZM8.19741 1.23961C7.75147 1.32488 7.31194 1.44448 6.88341 1.59881C5.48041 2.10448 4.22227 2.96101 3.23667 4.09194L5.64367 6.18521C6.49761 5.20588 7.61727 4.59361 8.80321 4.36248L8.19741 1.23961ZM1.54162 7.01568L4.56142 8.05681C4.15462 9.24368 4.15955 10.5305 4.56042 11.705L1.54075 12.7442C1.30329 12.0481 1.15162 11.3175 1.09322 10.565C0.998418 9.34334 1.15469 8.14061 1.54162 7.01568ZM5.64082 13.578L3.23115 15.671C3.51262 15.9931 3.81922 16.2971 4.15022 16.5803C5.31149 17.5744 6.70215 18.246 8.19049 18.5359L8.80002 15.4027C7.87829 15.2229 6.98882 14.8109 6.22442 14.1567C6.01282 13.9756 5.81875 13.7817 5.64082 13.578ZM12.8802 18.1756C12.4529 18.3295 12.0145 18.4496 11.5697 18.5358L10.9619 15.4025C12.1478 15.1713 13.2675 14.5591 14.1215 13.5797L16.5295 15.6736C15.5436 16.8057 14.2838 17.6697 12.8802 18.1756ZM9.52202 10.6826C9.89903 10.9465 10.9198 10.1391 11.8021 8.87918C12.6843 7.61922 13.0939 6.38381 12.7169 6.11983C12.3399 5.85585 11.3191 6.66325 10.4368 7.92322C9.55459 9.18318 9.14502 10.4186 9.52202 10.6826ZM6.75815 3.56648C6.75815 3.86103 6.51937 4.09981 6.22482 4.09981C5.93027 4.09981 5.69149 3.86103 5.69149 3.56648C5.69149 3.27193 5.93027 3.03315 6.22482 3.03315C6.51937 3.03315 6.75815 3.27193 6.75815 3.56648ZM2.58387 10.4254C2.87842 10.4254 3.1172 10.1866 3.1172 9.89207C3.1172 9.59752 2.87842 9.35874 2.58387 9.35874C2.28932 9.35874 2.05054 9.59752 2.05054 9.89207C2.05054 10.1866 2.28932 10.4254 2.58387 10.4254ZM6.77488 16.2081C6.77488 16.5027 6.5361 16.7415 6.24154 16.7415C5.94699 16.7415 5.70821 16.5027 5.70821 16.2081C5.70821 15.9136 5.94699 15.6748 6.24154 15.6748C6.5361 15.6748 6.77488 15.9136 6.77488 16.2081ZM13.5404 16.7318C13.8349 16.7318 14.0738 16.493 14.0738 16.1984C14.0738 15.9038 13.8349 15.665 13.5404 15.665C13.2458 15.665 13.007 15.9038 13.007 16.1984C13.007 16.493 13.2458 16.7318 13.5404 16.7318ZM17.7145 9.87268C17.7145 10.1672 17.4757 10.406 17.1811 10.406C16.8866 10.406 16.6478 10.1672 16.6478 9.87268C16.6478 9.57813 16.8866 9.33935 17.1811 9.33935C17.4757 9.33935 17.7145 9.57813 17.7145 9.87268ZM13.5235 4.09001C13.8181 4.09001 14.0569 3.85123 14.0569 3.55667C14.0569 3.26212 13.8181 3.02334 13.5235 3.02334C13.229 3.02334 12.9902 3.26212 12.9902 3.55667C12.9902 3.85123 13.229 4.09001 13.5235 4.09001Z" fill="#FF6565"/>
</svg>
