<svg width="20" height="20" viewBox="0 0 20 20" fill="none" xmlns="http://www.w3.org/2000/svg">
<path fill-rule="evenodd" clip-rule="evenodd" d="M18.9936 9.7282C20.0858 8.63604 20.001 6.85929 19.9969 6.7842C19.9803 6.48478 19.7413 6.2458 19.4419 6.22926C19.3749 6.22557 17.9453 6.15745 16.8627 6.92557V5.53773C17.2429 5.13322 18.0392 4.14267 18.0392 2.94118C18.0392 1.39659 16.7229 0.200157 16.6669 0.15C16.4435 -0.05 16.1054 -0.05 15.8821 0.15C15.826 0.200157 14.5098 1.39659 14.5098 2.94118C14.5098 4.14267 15.306 5.13322 15.6862 5.53773V8.03922C15.6862 8.35353 15.6602 8.6618 15.6109 8.96239C15.5889 9.06145 15.5709 9.15773 15.5561 9.24977C15.2427 10.6896 14.3824 11.9275 13.2043 12.7341C13.1427 12.7727 13.0836 12.8116 13.0269 12.8507C12.1498 13.4045 11.1117 13.7255 9.99996 13.7255C8.88819 13.7255 7.85011 13.4045 6.97302 12.8507C6.91639 12.8117 6.85725 12.7727 6.79568 12.7341C5.61757 11.9275 4.75729 10.6896 4.44384 9.24973C4.42909 9.15765 4.41102 9.06141 4.38906 8.96235C4.33972 8.6618 4.31368 8.35349 4.31368 8.03922V5.53773C4.69388 5.13322 5.49015 4.14267 5.49015 2.94118C5.49015 1.39659 4.17392 0.200157 4.11784 0.15C3.89451 -0.05 3.55643 -0.05 3.33306 0.15C3.27698 0.200157 1.96074 1.39659 1.96074 2.94118C1.96074 4.14267 2.75702 5.13322 3.13721 5.53773V6.92557C2.05462 6.15741 0.625056 6.22549 0.557997 6.22926C0.258624 6.2458 0.0196047 6.48482 0.00305564 6.7842C-0.00106201 6.85929 -0.0858855 8.63608 1.00635 9.7282C1.86337 10.5852 3.14113 10.7175 3.68823 10.7327C3.91215 11.2554 4.19925 11.7447 4.53972 12.1914C3.21117 12.3989 2.2296 13.4785 2.18427 13.5291C1.98423 13.7525 1.98423 14.0906 2.18427 14.3139C2.23443 14.37 3.43086 15.6863 4.97545 15.6863C6.2178 15.6863 7.23435 14.8351 7.61094 14.4727C7.75862 14.5278 7.90874 14.5777 8.06102 14.6226C7.68106 15.0678 7.45094 15.6446 7.45094 16.2745V16.4706H12.549V16.2745C12.549 15.6447 12.3189 15.0679 11.9389 14.6226C12.0912 14.5776 12.2413 14.5278 12.389 14.4727C12.7656 14.8352 13.7822 15.6863 15.0245 15.6863C16.5691 15.6863 17.7655 14.37 17.8157 14.314C18.0157 14.0906 18.0157 13.7526 17.8157 13.5292C17.7704 13.4785 16.7888 12.3989 15.4602 12.1914C15.8007 11.7448 16.0878 11.2555 16.3117 10.7328C16.8589 10.7175 18.1366 10.5852 18.9936 9.7282ZM14.5098 8.03922C14.5098 10.5259 12.4867 12.549 9.99997 12.549C7.51326 12.549 5.49016 10.5259 5.49016 8.03922C5.49016 5.55251 7.51326 3.52941 9.99997 3.52941C12.4867 3.52941 14.5098 5.55251 14.5098 8.03922ZM10.1811 5.68627H9.42672C9.10181 5.68627 8.83848 5.94965 8.83848 6.27451C8.83848 6.59937 9.10185 6.86275 9.42672 6.86275H9.59283V9.80392C9.59283 10.1288 9.85621 10.3922 10.1811 10.3922C10.5059 10.3922 10.7693 10.1288 10.7693 9.80392V6.27451C10.7693 5.94965 10.5059 5.68627 10.1811 5.68627ZM14.1366 18.7549H14.9826C15.2629 18.7549 15.4901 19.0183 15.4901 19.3431C15.4901 19.668 15.2629 19.9314 14.9826 19.9314H5.50754C5.22721 19.9314 4.99995 19.668 4.99995 19.3431C4.99995 19.0183 5.22721 18.7549 5.50754 18.7549H6.35352V18.4804C6.35352 17.9389 6.73229 17.5 7.19951 17.5H13.2906C13.7578 17.5 14.1366 17.9389 14.1366 18.4804V18.7549Z" fill="#FFD400"/>
</svg>
