<svg width="24" height="29" viewBox="0 0 24 29" fill="none" xmlns="http://www.w3.org/2000/svg">
<path fill-rule="evenodd" clip-rule="evenodd" d="M24 4.45476V21.2715C24 21.8866 23.5014 22.3852 22.8863 22.3852C22.2712 22.3852 21.7726 21.8866 21.7726 21.2715V4.45476C21.7726 3.22665 20.7733 2.22738 19.5452 2.22738H7.18329C6.56816 2.22738 6.06961 1.72883 6.06961 1.11369C6.06961 0.49855 6.56816 0 7.18329 0H19.5452C22.0017 0 24 1.99833 24 4.45476ZM15.0905 28.5104H4.45476C1.99833 28.5104 0 26.5121 0 24.0557V8.9652C0 6.50877 1.99833 4.51044 4.45476 4.51044H15.0905C17.5469 4.51044 19.5452 6.50877 19.5452 8.9652V24.0557C19.5452 26.5121 17.5469 28.5104 15.0905 28.5104ZM4.45476 6.73782C3.22665 6.73782 2.22738 7.73709 2.22738 8.9652V24.0557C2.22738 25.2838 3.22665 26.2831 4.45476 26.2831H15.0905C16.3186 26.2831 17.3179 25.2838 17.3179 24.0557V8.9652C17.3179 7.73709 16.3186 6.73782 15.0905 6.73782H4.45476Z" fill="#F8F8F8"/>
</svg>
